<svg width="58" height="42" viewBox="0 0 58 42" fill="none" xmlns="http://www.w3.org/2000/svg">
<g clip-path="url(#clip0_1_235)">
<path d="M14.9618 15.7C15.8391 15.7 16.5718 15.994 17.1598 16.582C17.7478 17.17 18.0418 17.9027 18.0418 18.78C18.0418 19.6573 17.7478 20.39 17.1598 20.978C16.5718 21.566 15.8391 21.86 14.9618 21.86H12.4418V25.5H11.4618V15.7H14.9618ZM14.9618 20.936C15.5685 20.936 16.0678 20.7353 16.4598 20.334C16.8611 19.9233 17.0618 19.4053 17.0618 18.78C17.0618 18.1547 16.8611 17.6413 16.4598 17.24C16.0678 16.8293 15.5685 16.624 14.9618 16.624H12.4418V20.936H14.9618ZM24.6196 18.5H25.5996L22.6036 26.144C22.3329 26.8347 21.9456 27.376 21.4416 27.768C20.9469 28.1693 20.3916 28.3467 19.7756 28.3V27.432C20.6156 27.5253 21.2549 27.04 21.6936 25.976L21.8756 25.542L18.7396 18.5H19.7196L22.3516 24.366L24.6196 18.5ZM29.7049 25.668C28.6502 25.668 27.7729 25.318 27.0729 24.618C26.3729 23.9087 26.0229 23.036 26.0229 22C26.0229 20.964 26.3729 20.096 27.0729 19.396C27.7729 18.6867 28.6502 18.332 29.7049 18.332C30.3956 18.332 31.0162 18.5 31.5669 18.836C32.1176 19.1627 32.5189 19.606 32.7709 20.166L32.0149 20.6C31.8282 20.18 31.5249 19.8487 31.1049 19.606C30.6942 19.354 30.2276 19.228 29.7049 19.228C28.9302 19.228 28.2769 19.4987 27.7449 20.04C27.2129 20.572 26.9469 21.2253 26.9469 22C26.9469 22.7747 27.2129 23.4327 27.7449 23.974C28.2769 24.506 28.9302 24.772 29.7049 24.772C30.2276 24.772 30.6942 24.6507 31.1049 24.408C31.5156 24.156 31.8376 23.82 32.0709 23.4L32.8409 23.848C32.5516 24.408 32.1269 24.8513 31.5669 25.178C31.0069 25.5047 30.3862 25.668 29.7049 25.668ZM34.9197 25.416C34.7703 25.5653 34.5883 25.64 34.3737 25.64C34.159 25.64 33.977 25.5653 33.8277 25.416C33.6783 25.2667 33.6037 25.0847 33.6037 24.87C33.6037 24.6553 33.6783 24.4733 33.8277 24.324C33.977 24.1747 34.159 24.1 34.3737 24.1C34.5883 24.1 34.7703 24.1747 34.9197 24.324C35.069 24.4733 35.1437 24.6553 35.1437 24.87C35.1437 25.0847 35.069 25.2667 34.9197 25.416Z" fill="#5C5D5F"/>
<path d="M57.0022 17.9399H46.166L51.4539 24.0598L57.0022 17.9399Z" fill="#C4C4C4"/>
</g>
<defs>
<clipPath id="clip0_1_235">
<rect width="56.8362" height="41" fill="white" transform="translate(0.166016 0.5)"/>
</clipPath>
</defs>
</svg>
