<svg width="167" height="42" viewBox="0 0 167 42" fill="none" xmlns="http://www.w3.org/2000/svg">
<path d="M145.126 23.2076H143.815V17.5933H145.314C146.138 17.5933 146.625 18.5422 146.625 20.3609C146.662 22.3377 146.1 23.2076 145.126 23.2076ZM151.007 14.035V19.0562C150.595 16.3677 148.947 14.035 145.688 14.035H139.77V23.2866H133.89V21.9028H138.234V18.7004H133.852V17.3956H139.096V14.035H129.732V17.3956C129.245 15.142 127.672 14.035 125.05 14.035H118.57V22.4959C114.862 24.0378 112.502 23.5634 112.427 20.519C112.427 17.3956 114.562 16.6049 117.933 17.6724L117.596 14.2327C113.476 13.3629 110.292 14.2327 108.42 17.6724C108.083 15.8537 107.109 14.1536 104.15 14.035H97.5949V23.2076H91.6768V21.9028H96.0217V18.7004H91.6768V17.3956H96.9207V14.1141L72.1249 14.1536V21.0726L68.9037 14.1536H64.2217V23.3262H58.079V22.0214H62.4239V18.898H58.079V17.5143H63.2479V14.2327H53.9963V22.6145C50.6253 24.0774 47.9284 23.8401 47.9284 20.4795C47.9284 17.6329 50.4754 16.7631 53.5094 17.8701L53.0974 14.3513C47.5913 13.1257 43.8083 15.3793 43.7334 20.7563C43.7334 25.2635 48.3405 28.031 53.9963 26.2914V26.6473H67.9299V20.1632L71.0387 26.6473H75.8705V17.3956H79.7284V26.6473H83.9984V17.4747H87.5193V26.6077H101.453V17.4352H102.764C103.513 17.4352 104.075 17.6724 104.075 18.5422C104 19.5702 103.176 19.8469 101.79 19.5702L103.663 26.5682H108.083L106.21 21.3889C107.109 21.1516 107.783 20.519 108.083 19.6492C108.083 26.7263 113.926 27.5961 118.495 26.1333V26.4891H122.503V17.3166H123.814C124.788 17.3166 125.05 17.9096 125.05 18.4236C125.125 19.2934 124.151 19.7283 122.765 19.4516L124.75 26.4496H128.945L127.148 21.2702C128.458 20.9144 129.283 20.2423 129.695 19.0167V26.4496L146.362 26.41C148.647 26.41 150.37 24.6704 150.969 21.8238V26.41H155.239V17.2375H159.434V26.41H163.704V17.2375H167.001V13.9559L151.007 14.035Z" fill="url(#paint0_linear_32_407)"/>
<path d="M12.0078 16.7239H15.3414L13.3563 20.5193L13.6934 21.1519C13.6934 21.1519 16.6149 20.3612 16.6898 22.4962C16.7647 24.6706 13.2813 24.3148 12.1951 23.6427C11.6333 25.1451 11.3711 26.2521 11.3711 26.2521C11.3711 26.2521 16.5774 28.5056 19.0121 24.6706C16.7647 21.9426 17.6637 19.096 17.6637 19.096L17.0269 18.9774L19.6863 14.1145H19.1244H11.9329L12.0078 16.7239Z" fill="url(#paint1_linear_32_407)"/>
<path d="M24.3683 23.8011C22.6453 23.8011 21.222 22.2988 21.222 20.4801C21.222 18.6614 22.6453 17.159 24.3683 17.159C26.0912 17.159 27.5146 18.6614 27.5146 20.4801C27.5146 22.2988 26.0912 23.8011 24.3683 23.8011ZM24.3683 14.0752C21.0347 14.0752 18.3379 16.9218 18.3379 20.4406C18.3379 23.9593 21.0347 26.8059 24.3683 26.8059C27.7018 26.8059 30.3987 23.9593 30.3987 20.4406C30.3987 16.9614 27.7018 14.0752 24.3683 14.0752Z" fill="url(#paint2_linear_32_407)"/>
<path d="M34.5566 22.2591C34.4068 22.4173 34.0697 22.2591 34.1446 22.101V18.9381C34.0697 18.5822 34.4817 18.5032 34.6315 18.6613L35.9424 20.0451C36.0923 20.3218 36.1672 20.6381 35.9424 20.7963L34.5566 22.2591ZM31.635 31.8666C31.5601 32.1038 31.3728 32.4596 31.0732 32.4596H29.2004C28.8633 32.4596 28.7884 32.1038 28.9382 31.9456L31.0357 29.7316C31.2979 29.4548 31.5976 29.6525 31.5976 29.8897L31.635 31.8666ZM23.4322 32.2224H16.9149C16.0159 32.3015 15.2668 32.0642 14.6301 31.2735L9.91064 26.3314C9.16153 25.6593 8.86188 24.7895 8.93679 23.6825V16.9217C8.93679 15.9728 9.27389 15.103 9.83573 14.51L14.7799 9.29112C15.2668 8.77714 15.9036 8.50038 16.8025 8.50038H23.4697C24.3686 8.42131 25.1177 8.65853 25.6795 9.37019L30.4739 14.4309C31.1106 15.0239 31.4477 15.8147 31.4477 16.724V24.0778C31.5227 25.0267 31.223 25.7779 30.4739 26.2919L25.9417 31.1549C25.2301 31.9456 24.406 32.3015 23.4322 32.2224ZM21.9714 35.6225L20.6605 37.0063C20.4357 37.2435 20.0986 37.2435 19.9113 37.0063L18.5255 35.6225C18.3757 35.3853 18.5255 35.1086 18.6753 35.1086H21.6718C22.0463 35.1086 22.1212 35.4644 21.9714 35.6225ZM11.4838 32.6573H9.611C9.34881 32.6573 9.12407 32.4991 9.12407 32.1433L9.04916 30.1665C9.04916 29.8106 9.38626 29.7316 9.53609 29.9293L11.746 32.1433C11.8583 32.3015 11.7085 32.6573 11.4838 32.6573ZM8.86188 10.9912V9.09343C8.93679 8.7376 9.12407 8.50038 9.42372 8.50038H11.2965C11.6336 8.50038 11.7085 8.85621 11.5587 9.01436L9.46117 11.2284C9.16153 11.3866 8.86188 11.2284 8.86188 10.9912ZM18.7877 5.29791L20.0986 3.91413C20.3608 3.75598 20.6605 3.63737 20.8477 3.91413L22.2336 5.29791C22.3834 5.53513 22.2336 5.81189 22.0089 5.81189H19.0873C18.6753 5.81189 18.6004 5.4956 18.7877 5.29791ZM29.2004 8.46085H31.0732C31.3354 8.46085 31.635 8.61899 31.5601 8.97482V11.0307C31.5601 11.268 31.223 11.3866 31.1481 11.1889L29.0506 8.97482C28.7884 8.81668 28.9382 8.46085 29.2004 8.46085ZM5.86541 22.2987L4.55446 20.9149C4.40464 20.7172 4.29227 20.4009 4.55446 20.1637L5.94033 18.7008C6.09015 18.5427 6.42725 18.7008 6.35234 18.9776L6.42725 22.0615C6.42725 22.3778 6.09015 22.4568 5.86541 22.2987ZM33.9947 14.5495V5.97004H25.9417L20.3234 0L14.705 5.9305H6.57707V14.51L0.883789 20.48L6.65199 26.4896V35.069H14.705L20.3234 41.0391L25.9417 35.0295H34.0697V26.5291L39.7629 20.5591L33.9947 14.5495Z" fill="url(#paint3_linear_32_407)"/>
<path d="M46.2051 31.1547V34.7131H47.6659C47.928 34.7131 48.2652 34.6736 48.5648 34.4759C48.7895 34.3177 48.9394 34.0805 48.9394 33.6851C48.9394 33.2897 48.7521 33.1316 48.7146 33.0921C48.6023 32.9734 48.415 32.8944 48.2277 32.8548V32.8153C48.415 32.7758 48.5273 32.6571 48.6397 32.5385C48.7521 32.4199 48.827 32.2222 48.827 32.0245C48.827 31.7873 48.7521 31.5105 48.4899 31.3524C48.2277 31.1547 47.8531 31.1547 47.5909 31.1547H46.2051ZM46.8418 31.7082H47.516C47.7408 31.7082 47.8906 31.7478 48.003 31.7873C48.1902 31.9059 48.1902 32.0245 48.1902 32.1431C48.1902 32.2222 48.1902 32.4199 48.003 32.499C47.8531 32.5781 47.6659 32.5781 47.4786 32.5781H46.8418V31.7082ZM46.8418 33.0921H47.4786C47.7782 33.0921 47.9655 33.1316 48.0779 33.2107C48.2277 33.2897 48.3026 33.4479 48.3026 33.6456C48.3026 33.8037 48.2277 33.9224 48.1528 34.0014C48.003 34.1596 47.7408 34.1596 47.6284 34.1596H46.8418V33.0921ZM53.5839 31.1547V34.1596H52.0107V31.1547H51.374V34.7131H54.1083V35.7016H54.7076V34.1596H54.1832V31.1547H53.5839ZM58.1535 33.0921V32.8944C58.1535 32.4594 58.0411 31.9455 57.7789 31.5896C57.5916 31.3524 57.2545 31.0756 56.6553 31.0756C56.1309 31.0756 55.7938 31.2733 55.6065 31.471C55.3443 31.7082 55.0821 32.1431 55.0821 32.8944C55.0821 33.5665 55.3068 34.0014 55.5316 34.2387C55.9061 34.6736 56.4305 34.7527 56.8425 34.7527C57.4044 34.7527 57.6291 34.634 57.8164 34.555L57.8913 34.5154V33.8433C57.6291 34.041 57.2171 34.1991 56.88 34.1991C56.5054 34.1991 56.2058 34.041 56.0185 33.8433C55.8687 33.6456 55.7563 33.3688 55.7189 33.0525L58.1535 33.0921ZM55.7563 32.5781C55.7938 32.3804 55.8312 32.1431 55.9811 31.985C56.1309 31.7873 56.3182 31.6291 56.6553 31.6291C56.9924 31.6291 57.2171 31.8268 57.3295 31.9455C57.4418 32.1036 57.5167 32.3408 57.5167 32.5781H55.7563ZM59.6143 31.1547H58.9775V34.7131H59.6143V33.1316H61.3372V34.7131H61.974V31.1547H61.3372V32.5781H59.6143V31.1547ZM62.5358 31.1547V31.6687H63.697V34.6736H64.3337V31.6687H65.4948V31.1547H62.5358ZM66.0567 31.1547V36.176H66.6934V34.2387C66.7683 34.3573 66.8807 34.4759 67.068 34.5945C67.2927 34.7131 67.5549 34.7527 67.8171 34.7527C68.3789 34.7527 68.6786 34.4759 68.8659 34.2387C69.128 33.8828 69.2404 33.3688 69.2404 32.8944C69.2404 32.3408 69.0906 31.8664 68.8284 31.5501C68.5662 31.2338 68.1917 31.0756 67.7796 31.0756C67.5174 31.0756 66.9931 31.1152 66.656 31.6291V31.1152H66.0567V31.1547ZM66.6934 32.9339C66.6934 32.6176 66.7683 32.3013 66.9556 32.0245C67.068 31.8268 67.2927 31.5896 67.7047 31.5896C67.9669 31.5896 68.1917 31.7082 68.3415 31.9059C68.5662 32.1827 68.6037 32.5781 68.6037 32.8548C68.6037 33.3293 68.4913 33.6851 68.304 33.9224C68.1542 34.0805 67.9669 34.2387 67.6673 34.2387C67.3302 34.2387 67.1054 34.0805 66.9556 33.8433C66.7683 33.6061 66.6934 33.2502 66.6934 32.9339ZM72.9111 33.0921V32.8944C72.9111 32.4594 72.7987 31.9455 72.5365 31.5896C72.3493 31.3524 72.0121 31.0756 71.4129 31.0756C70.8885 31.0756 70.5514 31.2733 70.3641 31.471C70.1019 31.7082 69.8397 32.1431 69.8397 32.8944C69.8397 33.5665 70.0644 34.0014 70.2892 34.2387C70.6637 34.6736 71.1881 34.7527 71.6001 34.7527C72.162 34.7527 72.3867 34.634 72.574 34.555L72.6489 34.5154V33.8433C72.3867 34.041 71.9747 34.1991 71.6376 34.1991C71.263 34.1991 70.9634 34.041 70.7761 33.8433C70.6263 33.6456 70.5139 33.3688 70.4765 33.0525L72.9111 33.0921ZM70.5139 32.5781C70.5514 32.3804 70.5888 32.1431 70.7386 31.985C70.8885 31.7873 71.0758 31.6291 71.4129 31.6291C71.75 31.6291 71.9747 31.8268 72.0871 31.9455C72.1994 32.1036 72.2743 32.3408 72.2743 32.5781H70.5139ZM77.4807 31.2338C77.1436 31.1152 76.844 31.0756 76.7316 31.0756C76.3196 31.0756 75.9076 31.2338 75.6079 31.471C75.1584 31.8664 75.0461 32.3804 75.0461 32.8548C75.0461 33.4874 75.3083 33.9224 75.4955 34.1596C75.7577 34.4759 76.1697 34.7131 76.769 34.7131C77.1061 34.7131 77.3309 34.6736 77.5556 34.555L77.5182 33.9619C77.3683 34.0805 77.1436 34.1596 76.844 34.1596C76.4694 34.1596 76.1697 33.9619 75.9825 33.7642C75.7952 33.527 75.7203 33.1711 75.7203 32.8548C75.7203 32.4594 75.8701 32.0641 76.0948 31.8268C76.2821 31.6687 76.5443 31.5501 76.769 31.5501C76.9563 31.5501 77.2185 31.5896 77.4432 31.7082L77.4807 31.2338ZM79.6906 31.1152C79.0538 31.1152 78.6418 31.3919 78.4171 31.6687C78.1174 32.0245 77.9676 32.499 77.9676 32.9339C77.9676 33.3688 78.1174 33.8433 78.4171 34.1991C78.6418 34.4759 79.0538 34.7527 79.6906 34.7527C80.3273 34.7527 80.7394 34.4759 80.9641 34.1991C81.2637 33.8433 81.4136 33.3688 81.4136 32.9339C81.4136 32.499 81.2637 32.0245 80.9641 31.6687C80.7394 31.3919 80.3273 31.1152 79.6906 31.1152ZM79.6906 31.6291C79.9902 31.6291 80.2899 31.7478 80.4772 32.0641C80.627 32.2618 80.7394 32.5781 80.7394 32.9339C80.7394 33.2897 80.627 33.6061 80.4772 33.8037C80.215 34.1991 79.8404 34.2387 79.6906 34.2387C79.5408 34.2387 79.1662 34.1991 78.904 33.8037C78.7542 33.6061 78.6418 33.2897 78.6418 32.9339C78.6418 32.6176 78.7167 32.3013 78.904 32.0641C79.0913 31.8268 79.3535 31.6291 79.6906 31.6291ZM85.1591 29.3359C84.9344 29.415 84.7471 29.415 84.5598 29.415C84.4475 29.415 84.2977 29.415 84.1853 29.4546C84.1104 29.4546 84.0355 29.4546 83.9231 29.4546C83.7733 29.4546 83.5485 29.4941 83.3613 29.5336C83.1365 29.5732 82.8743 29.6918 82.6121 29.929C82.1627 30.3639 82.0129 31.1547 82.0129 32.0641C82.0129 33.2897 82.275 33.8828 82.4998 34.1991C82.762 34.5154 83.2489 34.7527 83.7733 34.7527C84.41 34.7527 84.822 34.4759 85.0468 34.1991C85.309 33.9224 85.4962 33.4874 85.4962 32.9339C85.4962 31.8664 84.822 31.1152 83.8482 31.1152C83.586 31.1152 83.2864 31.1942 83.0991 31.3128C82.9118 31.4315 82.7245 31.6687 82.6121 31.8664H82.5747V31.7082C82.5747 31.3128 82.6121 30.7988 82.9118 30.4825C83.0242 30.3244 83.2489 30.1662 83.586 30.1267C83.6609 30.1267 83.8107 30.0872 84.1104 30.0872C84.2977 30.0872 84.1853 30.0872 84.5973 30.0476C84.7471 30.0476 84.8969 30.0081 85.1217 29.9685L85.1591 29.3359ZM83.8107 31.6291C84.1104 31.6291 84.3726 31.7478 84.5973 32.0641C84.7846 32.3408 84.8595 32.6571 84.8595 32.9339C84.8595 33.2502 84.7846 33.5665 84.5973 33.8037C84.41 34.0805 84.1104 34.2387 83.8107 34.2387C83.5111 34.2387 83.2114 34.12 83.0242 33.8037C82.8369 33.5665 82.762 33.2107 82.762 32.9339C82.762 32.6571 82.8369 32.3013 83.0242 32.0641C83.1365 31.8664 83.3987 31.6291 83.8107 31.6291ZM86.3203 31.1547V34.7131H87.7436C88.0058 34.7131 88.3803 34.6736 88.68 34.4363C88.8673 34.2782 88.9796 34.0014 88.9796 33.6456C88.9796 33.2107 88.7924 32.9339 88.6051 32.8153C88.3054 32.5781 87.856 32.5385 87.5938 32.5385H86.9196V31.1942H86.3203V31.1547ZM86.957 33.0525H87.6687C87.8185 33.0525 88.0807 33.0525 88.268 33.2107C88.4178 33.3293 88.4178 33.4874 88.4178 33.6061C88.4178 33.7247 88.3803 33.8828 88.3054 34.0014C88.1556 34.1596 87.9309 34.1991 87.7811 34.1991H86.9945L86.957 33.0525ZM89.5415 34.7131H90.1782V31.1547H89.5415V34.7131ZM90.7401 31.1547V31.6687H91.9012V34.6736H92.5379V31.6687H93.6991V31.1547H90.7401ZM94.9351 31.1547H94.2984V34.7131H94.9351L96.733 32.0245V34.7131H97.3697V31.1547H96.733L94.9351 33.8433V31.1547ZM99.0178 31.1547H98.3811V34.7131H99.0178L100.816 32.0245V34.7131H101.452V31.1547H100.816L99.0178 33.8433V31.1547ZM100.553 29.5336C100.516 29.7313 100.441 29.8104 100.404 29.8499C100.254 29.9685 100.104 30.0081 99.9542 30.0081C99.8044 30.0081 99.6545 30.0081 99.5047 29.8499C99.4673 29.8104 99.3549 29.6918 99.3549 29.5336L98.9429 29.5732C98.9429 29.8895 99.0927 30.1662 99.28 30.2849C99.4673 30.443 99.7295 30.4825 99.9542 30.4825C100.216 30.4825 100.479 30.4035 100.628 30.2849C100.778 30.1662 100.928 29.8895 100.966 29.5732L100.553 29.5336ZM107.708 31.1547H107.071V34.7131H107.708V33.1316H109.431V34.7131H110.067V31.1547H109.431V32.5781H107.708V31.1547ZM111.303 31.985C111.715 31.6687 112.052 31.6291 112.315 31.6291C112.464 31.6291 112.727 31.6291 112.914 31.8268C113.101 31.985 113.101 32.2222 113.101 32.3408V32.5385C112.989 32.5385 112.802 32.5385 112.689 32.5385C111.94 32.5385 111.566 32.6967 111.416 32.7758C110.966 33.0525 110.891 33.4874 110.891 33.7247C110.891 34.12 111.079 34.3968 111.266 34.5154C111.453 34.6736 111.753 34.7527 112.052 34.7527C112.427 34.7527 112.876 34.5945 113.139 34.1991V34.6736H113.7C113.663 34.5154 113.663 34.12 113.663 33.9619V32.5385C113.663 32.1431 113.626 31.7478 113.363 31.4315C113.139 31.1942 112.802 31.0756 112.39 31.0756C112.165 31.0756 111.64 31.1152 111.228 31.3919L111.303 31.985ZM113.101 33.3293C113.101 33.6456 112.989 33.8433 112.876 33.9619C112.727 34.1596 112.464 34.2387 112.202 34.2387C112.015 34.2387 111.865 34.1991 111.715 34.0805C111.64 34.0014 111.528 33.8828 111.528 33.6851C111.528 33.527 111.566 33.3688 111.79 33.2107C111.978 33.0921 112.277 33.013 112.764 33.013C112.876 33.013 112.989 33.013 113.101 33.013V33.3293ZM116.285 31.1547V34.7131H116.922V31.7082H118.57V34.7131H119.206V31.1547H116.285ZM121.716 31.1152C121.079 31.1152 120.667 31.3919 120.443 31.6687C120.143 32.0245 119.993 32.499 119.993 32.9339C119.993 33.3688 120.143 33.8433 120.443 34.1991C120.667 34.4759 121.079 34.7527 121.716 34.7527C122.353 34.7527 122.765 34.4759 122.99 34.1991C123.289 33.8433 123.439 33.3688 123.439 32.9339C123.439 32.499 123.289 32.0245 122.99 31.6687C122.765 31.3919 122.39 31.1152 121.716 31.1152ZM121.716 31.6291C122.016 31.6291 122.315 31.7478 122.503 32.0641C122.652 32.2618 122.765 32.5781 122.765 32.9339C122.765 33.2897 122.652 33.6061 122.503 33.8037C122.24 34.1991 121.866 34.2387 121.716 34.2387C121.566 34.2387 121.192 34.1991 120.929 33.8037C120.78 33.6061 120.667 33.2897 120.667 32.9339C120.667 32.6176 120.742 32.3013 120.929 32.0641C121.117 31.8268 121.416 31.6291 121.716 31.6291ZM124.263 31.1547V36.176H124.9V34.2387C124.975 34.3573 125.087 34.4759 125.274 34.5945C125.499 34.7131 125.761 34.7527 126.023 34.7527C126.585 34.7527 126.885 34.4759 127.072 34.2387C127.334 33.8828 127.447 33.3688 127.447 32.8944C127.447 32.3408 127.297 31.8664 127.035 31.5501C126.773 31.2338 126.398 31.0756 125.986 31.0756C125.724 31.0756 125.199 31.1152 124.862 31.6291V31.1152H124.263V31.1547ZM124.9 32.9339C124.9 32.6176 124.975 32.3013 125.162 32.0245C125.274 31.8268 125.499 31.5896 125.911 31.5896C126.173 31.5896 126.398 31.7082 126.548 31.9059C126.773 32.1827 126.81 32.5781 126.81 32.8548C126.81 33.3293 126.698 33.6851 126.51 33.9224C126.361 34.0805 126.173 34.2387 125.874 34.2387C125.537 34.2387 125.312 34.0805 125.162 33.8433C124.975 33.6061 124.9 33.2502 124.9 32.9339ZM129.769 31.1152C129.132 31.1152 128.72 31.3919 128.496 31.6687C128.196 32.0245 128.046 32.499 128.046 32.9339C128.046 33.3688 128.196 33.8433 128.496 34.1991C128.72 34.4759 129.132 34.7527 129.769 34.7527C130.406 34.7527 130.818 34.4759 131.043 34.1991C131.342 33.8433 131.492 33.3688 131.492 32.9339C131.492 32.499 131.342 32.0245 131.043 31.6687C130.818 31.3919 130.406 31.1152 129.769 31.1152ZM129.769 31.6291C130.069 31.6291 130.368 31.7478 130.556 32.0641C130.705 32.2618 130.818 32.5781 130.818 32.9339C130.818 33.2897 130.705 33.6061 130.556 33.8037C130.293 34.1991 129.919 34.2387 129.769 34.2387C129.619 34.2387 129.245 34.1991 128.982 33.8037C128.833 33.6061 128.72 33.2897 128.72 32.9339C128.72 32.6176 128.795 32.3013 128.982 32.0641C129.17 31.8268 129.432 31.6291 129.769 31.6291ZM132.316 31.1547V34.7131H132.953V31.7082H134.526V31.1547H132.316ZM137.785 33.0921V32.8944C137.785 32.4594 137.672 31.9455 137.41 31.5896C137.223 31.3524 136.886 31.0756 136.286 31.0756C135.762 31.0756 135.425 31.2733 135.238 31.471C134.975 31.7082 134.713 32.1431 134.713 32.8944C134.713 33.5665 134.938 34.0014 135.163 34.2387C135.537 34.6736 136.062 34.7527 136.474 34.7527C137.035 34.7527 137.26 34.634 137.447 34.555L137.522 34.5154V33.8433C137.26 34.041 136.848 34.1991 136.511 34.1991C136.137 34.1991 135.837 34.041 135.65 33.8433C135.5 33.6456 135.387 33.3688 135.35 33.0525L137.785 33.0921ZM135.387 32.5781C135.425 32.3804 135.462 32.1431 135.612 31.985C135.762 31.7873 135.949 31.6291 136.286 31.6291C136.623 31.6291 136.848 31.8268 136.961 31.9455C137.073 32.1036 137.148 32.3408 137.148 32.5781H135.387ZM140.144 31.1547V34.7131H140.781V31.7082H142.429V34.7131H143.066V31.1547H140.144ZM146.924 33.0921V32.8944C146.924 32.4594 146.811 31.9455 146.549 31.5896C146.362 31.3524 146.025 31.0756 145.426 31.0756C144.901 31.0756 144.564 31.2733 144.377 31.471C144.115 31.7082 143.852 32.1431 143.852 32.8944C143.852 33.5665 144.077 34.0014 144.302 34.2387C144.676 34.6736 145.201 34.7527 145.613 34.7527C146.175 34.7527 146.399 34.634 146.587 34.555L146.662 34.5154V33.8433C146.399 34.041 145.987 34.1991 145.65 34.1991C145.276 34.1991 144.976 34.041 144.789 33.8433C144.639 33.6456 144.527 33.3688 144.489 33.0525L146.924 33.0921ZM144.527 32.5781C144.564 32.3804 144.602 32.1431 144.751 31.985C144.901 31.7873 145.088 31.6291 145.426 31.6291C145.763 31.6291 145.987 31.8268 146.1 31.9455C146.212 32.1036 146.287 32.3408 146.287 32.5781H144.527ZM147.748 31.1547V36.176H148.385V34.2387C148.459 34.3573 148.572 34.4759 148.759 34.5945C148.984 34.7131 149.246 34.7527 149.508 34.7527C150.07 34.7527 150.37 34.4759 150.557 34.2387C150.819 33.8828 150.932 33.3688 150.932 32.8944C150.932 32.3408 150.782 31.8664 150.52 31.5501C150.257 31.2338 149.883 31.0756 149.471 31.0756C149.209 31.0756 148.684 31.1152 148.347 31.6291V31.1152H147.748V31.1547ZM148.385 32.9339C148.385 32.6176 148.46 32.3013 148.647 32.0245C148.759 31.8268 148.984 31.5896 149.396 31.5896C149.658 31.5896 149.883 31.7082 150.033 31.9059C150.257 32.1827 150.295 32.5781 150.295 32.8548C150.295 33.3293 150.182 33.6851 149.995 33.9224C149.845 34.0805 149.658 34.2387 149.358 34.2387C149.021 34.2387 148.797 34.0805 148.647 33.8433C148.46 33.6061 148.385 33.2502 148.385 32.9339ZM154.602 33.0921V32.8944C154.602 32.4594 154.49 31.9455 154.228 31.5896C154.04 31.3524 153.703 31.0756 153.104 31.0756C152.58 31.0756 152.243 31.2733 152.055 31.471C151.793 31.7082 151.531 32.1431 151.531 32.8944C151.531 33.5665 151.756 34.0014 151.98 34.2387C152.355 34.6736 152.879 34.7527 153.291 34.7527C153.853 34.7527 154.078 34.634 154.265 34.555L154.34 34.5154V33.8433C154.078 34.041 153.666 34.1991 153.329 34.1991C152.954 34.1991 152.655 34.041 152.467 33.8433C152.317 33.6456 152.205 33.3688 152.168 33.0525L154.602 33.0921ZM152.205 32.5781C152.243 32.3804 152.28 32.1431 152.43 31.985C152.58 31.7873 152.767 31.6291 153.104 31.6291C153.441 31.6291 153.666 31.8268 153.778 31.9455C153.891 32.1036 153.966 32.3408 153.966 32.5781H152.205ZM157.636 34.7131L158.647 31.8268V34.7131H159.284V31.1547H158.348L157.411 33.6851H157.374L156.4 31.1547H155.464V34.7131H156.1V31.8268L157.112 34.7131H157.636ZM163.18 33.0921V32.8944C163.18 32.4594 163.067 31.9455 162.805 31.5896C162.618 31.3524 162.281 31.0756 161.681 31.0756C161.157 31.0756 160.82 31.2733 160.633 31.471C160.37 31.7082 160.108 32.1431 160.108 32.8944C160.108 33.5665 160.333 34.0014 160.558 34.2387C160.932 34.6736 161.457 34.7527 161.869 34.7527C162.431 34.7527 162.655 34.634 162.843 34.555L162.917 34.5154V33.8433C162.655 34.041 162.243 34.1991 161.906 34.1991C161.532 34.1991 161.232 34.041 161.045 33.8433C160.895 33.6456 160.782 33.3688 160.745 33.0525L163.18 33.0921ZM160.782 32.5781C160.82 32.3804 160.857 32.1431 161.007 31.985C161.157 31.7873 161.344 31.6291 161.681 31.6291C162.019 31.6291 162.243 31.8268 162.356 31.9455C162.468 32.1036 162.543 32.3408 162.543 32.5781H160.782ZM164.603 31.1547H163.966V34.7131H164.603V33.1316H166.326V34.7131H166.963V31.1547H166.326V32.5781H164.603V31.1547Z" fill="url(#paint4_linear_32_407)"/>
<path d="M104.261 32.4197C104.524 32.4197 104.748 32.6569 104.748 32.9337C104.748 33.2105 104.524 33.4478 104.261 33.4478C103.999 33.4478 103.774 33.2105 103.774 32.9337C103.774 32.6569 103.999 32.4197 104.261 32.4197Z" fill="url(#paint5_linear_32_407)"/>
<defs>
<linearGradient id="paint0_linear_32_407" x1="105.367" y1="13.936" x2="105.367" y2="26.7524" gradientUnits="userSpaceOnUse">
<stop stop-color="#008456"/>
<stop offset="0.2627" stop-color="#00784F"/>
<stop offset="0.4196" stop-color="#008456"/>
<stop offset="0.8392" stop-color="#006B47"/>
<stop offset="1" stop-color="#006B47"/>
</linearGradient>
<linearGradient id="paint1_linear_32_407" x1="11.362" y1="20.5122" x2="19.6655" y2="20.5122" gradientUnits="userSpaceOnUse">
<stop stop-color="#CF9F69"/>
<stop offset="0.5137" stop-color="#B98853"/>
<stop offset="0.7608" stop-color="#A3713D"/>
<stop offset="1" stop-color="#A3713D"/>
</linearGradient>
<linearGradient id="paint2_linear_32_407" x1="18.3153" y1="20.4405" x2="30.4057" y2="20.4405" gradientUnits="userSpaceOnUse">
<stop stop-color="#CF9F69"/>
<stop offset="0.5137" stop-color="#B98853"/>
<stop offset="0.7608" stop-color="#A3713D"/>
<stop offset="1" stop-color="#A3713D"/>
</linearGradient>
<linearGradient id="paint3_linear_32_407" x1="20.3234" y1="-1.18181e-05" x2="20.3234" y2="41.039" gradientUnits="userSpaceOnUse">
<stop stop-color="#CF9F69"/>
<stop offset="0.3569" stop-color="#B98853"/>
<stop offset="0.651" stop-color="#A3713D"/>
<stop offset="1" stop-color="#A3713D"/>
</linearGradient>
<linearGradient id="paint4_linear_32_407" x1="106.584" y1="29.3204" x2="106.584" y2="36.1605" gradientUnits="userSpaceOnUse">
<stop stop-color="#CF9F69"/>
<stop offset="0.5137" stop-color="#B98853"/>
<stop offset="0.7608" stop-color="#A3713D"/>
<stop offset="1" stop-color="#A3713D"/>
</linearGradient>
<linearGradient id="paint5_linear_32_407" x1="104.261" y1="32.4225" x2="104.261" y2="33.4506" gradientUnits="userSpaceOnUse">
<stop stop-color="#CF9F69"/>
<stop offset="0.5137" stop-color="#B98853"/>
<stop offset="0.7608" stop-color="#A3713D"/>
<stop offset="1" stop-color="#A3713D"/>
</linearGradient>
</defs>
</svg>
