<svg width="88" height="36" viewBox="0 0 88 36" fill="none" xmlns="http://www.w3.org/2000/svg">
<path d="M10.216 8.568C11.512 8.568 12.736 8.82 13.888 9.324C15.04 9.804 16.036 10.476 16.876 11.34C17.74 12.18 18.412 13.176 18.892 14.328C19.396 15.456 19.648 16.668 19.648 17.964V26.964H16.516V24.948C15.676 25.692 14.716 26.28 13.636 26.712C12.58 27.12 11.44 27.324 10.216 27.324C8.92 27.324 7.708 27.084 6.58 26.604C5.452 26.1 4.456 25.428 3.592 24.588C2.752 23.748 2.08 22.764 1.576 21.636C1.096 20.484 0.856 19.26 0.856 17.964C0.856 16.668 1.096 15.456 1.576 14.328C2.08 13.176 2.752 12.18 3.592 11.34C4.456 10.476 5.452 9.804 6.58 9.324C7.708 8.82 8.92 8.568 10.216 8.568ZM10.216 11.664C9.352 11.664 8.536 11.832 7.768 12.168C7 12.48 6.328 12.924 5.752 13.5C5.2 14.076 4.756 14.748 4.42 15.516C4.084 16.284 3.916 17.1 3.916 17.964C3.916 18.828 4.084 19.644 4.42 20.412C4.756 21.18 5.2 21.852 5.752 22.428C6.328 22.98 7 23.424 7.768 23.76C8.536 24.096 9.352 24.264 10.216 24.264C11.104 24.264 11.932 24.096 12.7 23.76C13.468 23.424 14.128 22.98 14.68 22.428C15.256 21.852 15.7 21.18 16.012 20.412C16.348 19.644 16.516 18.828 16.516 17.964C16.516 17.1 16.348 16.284 16.012 15.516C15.7 14.748 15.256 14.076 14.68 13.5C14.128 12.924 13.468 12.48 12.7 12.168C11.932 11.832 11.104 11.664 10.216 11.664ZM23.0773 0.647998H26.1373V22.32C26.1373 22.872 26.3893 23.34 26.8933 23.724C27.4213 24.108 28.0453 24.3 28.7653 24.3V27.36C27.9733 27.36 27.2293 27.228 26.5333 26.964C25.8613 26.7 25.2613 26.34 24.7333 25.884C24.2293 25.428 23.8213 24.9 23.5093 24.3C23.2213 23.676 23.0773 23.016 23.0773 22.32V0.647998ZM36.0643 19.332C35.3923 19.332 34.7563 19.212 34.1563 18.972C33.5803 18.732 33.0643 18.408 32.6083 18C32.1523 17.568 31.7803 17.064 31.4923 16.488C31.2283 15.912 31.0843 15.288 31.0603 14.616C31.0363 14.472 31.0243 14.292 31.0243 14.076C31.0243 13.836 31.0363 13.644 31.0603 13.5C31.0843 12.852 31.2283 12.24 31.4923 11.664C31.7803 11.088 32.1523 10.584 32.6083 10.152C33.0643 9.72 33.5803 9.384 34.1563 9.144C34.7563 8.904 35.3923 8.784 36.0643 8.784H42.9763V11.88H36.0643C35.5603 11.88 35.1163 12.06 34.7323 12.42C34.3723 12.756 34.1683 13.188 34.1203 13.716C34.0723 13.956 34.0723 14.208 34.1203 14.472C34.1683 14.976 34.3723 15.408 34.7323 15.768C35.1163 16.104 35.5603 16.272 36.0643 16.272H38.5483C39.2203 16.272 39.8563 16.404 40.4563 16.668C41.0563 16.908 41.5723 17.244 42.0043 17.676C42.4603 18.108 42.8203 18.612 43.0843 19.188C43.3723 19.764 43.5283 20.388 43.5523 21.06V22.068C43.5523 22.764 43.4083 23.412 43.1203 24.012C42.8563 24.588 42.4963 25.104 42.0403 25.56C41.6083 26.016 41.0803 26.376 40.4563 26.64C39.8563 26.88 39.2083 27 38.5123 27H31.4203V23.94H38.5123C38.9923 23.94 39.4003 23.784 39.7363 23.472C40.0963 23.16 40.3363 22.788 40.4563 22.356V22.212C40.4563 22.164 40.4563 22.128 40.4563 22.104C40.4803 22.056 40.4923 22.008 40.4923 21.96V21.276C40.4683 20.724 40.2643 20.268 39.8803 19.908C39.5203 19.524 39.0643 19.332 38.5123 19.332H36.0643ZM61.5512 16.524C61.3592 15.852 61.0712 15.228 60.6872 14.652C60.3272 14.052 59.8832 13.548 59.3552 13.14C58.8272 12.708 58.2272 12.372 57.5552 12.132C56.9072 11.892 56.2112 11.772 55.4672 11.772C54.7232 11.772 54.0152 11.892 53.3432 12.132C52.6952 12.372 52.1072 12.708 51.5792 13.14C51.0512 13.548 50.5952 14.052 50.2112 14.652C49.8272 15.228 49.5512 15.852 49.3832 16.524H61.5512ZM55.4672 27.432C54.1712 27.432 52.9472 27.192 51.7952 26.712C50.6672 26.208 49.6712 25.536 48.8072 24.696C47.9672 23.832 47.2952 22.836 46.7912 21.708C46.3112 20.58 46.0712 19.368 46.0712 18.072C46.0712 16.776 46.3112 15.552 46.7912 14.4C47.2952 13.248 47.9672 12.252 48.8072 11.412C49.6712 10.572 50.6672 9.912 51.7952 9.432C52.9472 8.928 54.1712 8.676 55.4672 8.676C56.7632 8.676 57.9752 8.928 59.1032 9.432C60.2552 9.912 61.2512 10.572 62.0912 11.412C62.9312 12.252 63.5912 13.248 64.0712 14.4C64.5752 15.552 64.8272 16.776 64.8272 18.072C64.8272 18.24 64.8272 18.42 64.8272 18.612C64.8272 18.804 64.8032 19.128 64.7552 19.584H49.3832C49.5512 20.28 49.8272 20.916 50.2112 21.492C50.5952 22.068 51.0512 22.572 51.5792 23.004C52.1072 23.436 52.6952 23.772 53.3432 24.012C54.0152 24.252 54.7232 24.372 55.4672 24.372C56.0432 24.372 56.6192 24.228 57.1952 23.94C57.7712 23.628 58.3232 23.22 58.8512 22.716L61.0112 24.876C60.2192 25.644 59.3432 26.268 58.3832 26.748C57.4472 27.204 56.4752 27.432 55.4672 27.432ZM77.7211 8.676C79.0171 8.676 80.2291 8.928 81.3571 9.432C82.5091 9.912 83.5051 10.572 84.3451 11.412C85.2091 12.252 85.8811 13.248 86.3611 14.4C86.8651 15.552 87.1171 16.776 87.1171 18.072C87.1171 19.368 86.8651 20.58 86.3611 21.708C85.8811 22.836 85.2091 23.832 84.3451 24.696C83.5051 25.536 82.5091 26.208 81.3571 26.712C80.2291 27.192 79.0171 27.432 77.7211 27.432C76.4971 27.432 75.3451 27.228 74.2651 26.82C73.2091 26.388 72.2611 25.788 71.4211 25.02V35.388H68.3251V18.072C68.3251 16.776 68.5651 15.552 69.0451 14.4C69.5491 13.248 70.2211 12.252 71.0611 11.412C71.9251 10.572 72.9211 9.912 74.0491 9.432C75.2011 8.928 76.4251 8.676 77.7211 8.676ZM77.7211 11.772C76.8571 11.772 76.0411 11.94 75.2731 12.276C74.5051 12.588 73.8331 13.032 73.2571 13.608C72.6811 14.184 72.2251 14.856 71.8891 15.624C71.5771 16.392 71.4211 17.208 71.4211 18.072C71.4211 18.936 71.5771 19.752 71.8891 20.52C72.2251 21.288 72.6811 21.96 73.2571 22.536C73.8331 23.088 74.5051 23.532 75.2731 23.868C76.0411 24.204 76.8571 24.372 77.7211 24.372C78.5851 24.372 79.4011 24.204 80.1691 23.868C80.9371 23.532 81.6091 23.088 82.1851 22.536C82.7611 21.96 83.2051 21.288 83.5171 20.52C83.8531 19.752 84.0211 18.936 84.0211 18.072C84.0211 17.208 83.8531 16.392 83.5171 15.624C83.2051 14.856 82.7611 14.184 82.1851 13.608C81.6091 13.032 80.9371 12.588 80.1691 12.276C79.4011 11.94 78.5851 11.772 77.7211 11.772Z" fill="#173F5F"/>
</svg>
