<svg width="388" height="228" viewBox="0 0 388 228" fill="none" xmlns="http://www.w3.org/2000/svg">
<g filter="url(#filter0_d_11_159)">
<rect x="4" width="380" height="220" rx="20" fill="white"/>
<path d="M261.051 192V187.68L272.763 175.728C275.611 172.88 277.035 170.416 277.035 168.336C277.035 166.704 276.539 165.44 275.547 164.544C274.587 163.616 273.355 163.152 271.851 163.152C269.035 163.152 266.955 164.544 265.611 167.328L260.955 164.592C262.011 162.352 263.499 160.656 265.419 159.504C267.339 158.352 269.467 157.776 271.803 157.776C274.747 157.776 277.275 158.704 279.387 160.56C281.499 162.416 282.555 164.944 282.555 168.144C282.555 171.568 280.651 175.216 276.843 179.088L269.259 186.672H283.179V192H261.051ZM295.193 186.24L291.833 198.72H287.513L289.433 186.24H295.193ZM313.704 172.128C316.136 172.704 318.104 173.84 319.608 175.536C321.144 177.2 321.912 179.296 321.912 181.824C321.912 185.184 320.776 187.824 318.504 189.744C316.232 191.664 313.448 192.624 310.152 192.624C307.592 192.624 305.288 192.032 303.24 190.848C301.224 189.664 299.768 187.936 298.872 185.664L303.576 182.928C304.568 185.808 306.76 187.248 310.152 187.248C312.072 187.248 313.592 186.768 314.712 185.808C315.832 184.816 316.392 183.488 316.392 181.824C316.392 180.16 315.832 178.848 314.712 177.888C313.592 176.928 312.072 176.448 310.152 176.448H308.904L306.696 173.136L313.944 163.584H299.88V158.4H320.52V163.104L313.704 172.128ZM337.981 170.928C336.509 172.4 334.653 173.136 332.413 173.136C330.173 173.136 328.301 172.4 326.797 170.928C325.293 169.424 324.541 167.6 324.541 165.456C324.541 163.312 325.293 161.504 326.797 160.032C328.301 158.528 330.173 157.776 332.413 157.776C334.653 157.776 336.509 158.512 337.981 159.984C339.485 161.456 340.237 163.28 340.237 165.456C340.237 167.6 339.485 169.424 337.981 170.928ZM332.365 168.912C333.389 168.912 334.221 168.576 334.861 167.904C335.501 167.232 335.821 166.416 335.821 165.456C335.821 164.464 335.501 163.632 334.861 162.96C334.221 162.288 333.389 161.952 332.365 161.952C331.373 161.952 330.557 162.288 329.917 162.96C329.277 163.632 328.957 164.464 328.957 165.456C328.957 166.416 329.277 167.232 329.917 167.904C330.557 168.576 331.373 168.912 332.365 168.912ZM327.373 187.056L349.501 162.432L352.093 163.92L329.965 188.592L327.373 187.056ZM347.773 192.576C345.533 192.576 343.661 191.84 342.157 190.368C340.653 188.864 339.901 187.04 339.901 184.896C339.901 182.752 340.653 180.944 342.157 179.472C343.661 177.968 345.533 177.216 347.773 177.216C349.981 177.216 351.837 177.968 353.341 179.472C354.845 180.944 355.597 182.752 355.597 184.896C355.597 187.04 354.845 188.864 353.341 190.368C351.837 191.84 349.981 192.576 347.773 192.576ZM347.725 188.352C348.749 188.352 349.581 188.016 350.221 187.344C350.861 186.672 351.181 185.856 351.181 184.896C351.181 183.904 350.861 183.072 350.221 182.4C349.581 181.728 348.749 181.392 347.725 181.392C346.733 181.392 345.917 181.728 345.277 182.4C344.637 183.072 344.317 183.904 344.317 184.896C344.317 185.856 344.637 186.672 345.277 187.344C345.917 188.016 346.733 188.352 347.725 188.352Z" fill="#E33030"/>
<path d="M37.28 44.36H39.08V50.216H36.32V47H26.12V50.216H23.36V44.36H24.92C25.896 43.08 26.384 41.152 26.384 38.576V30.2H37.28V44.36ZM27.944 44.36H34.52V32.792H29.144V38.624C29.144 41.12 28.744 43.032 27.944 44.36ZM50.9647 35V47H48.3727V37.496H44.3647V41.96C44.3647 43.864 43.9487 45.216 43.1167 46.016C42.2847 46.816 41.1007 47.144 39.5647 47V44.576C40.3007 44.704 40.8527 44.552 41.2207 44.12C41.5887 43.688 41.7727 42.928 41.7727 41.84V35H50.9647ZM62.7931 35V47H60.2491V42.968H58.8091L55.7611 47H52.7131L55.9531 42.728C55.1211 42.456 54.4491 41.976 53.9371 41.288C53.4411 40.6 53.1931 39.832 53.1931 38.984C53.1931 37.88 53.5851 36.944 54.3691 36.176C55.1691 35.392 56.1931 35 57.4411 35H62.7931ZM57.5851 40.736H60.2491V37.352H57.5851C57.0571 37.352 56.6171 37.504 56.2651 37.808C55.9131 38.112 55.7371 38.528 55.7371 39.056C55.7371 39.568 55.9131 39.976 56.2651 40.28C56.6171 40.584 57.0571 40.736 57.5851 40.736ZM81.4578 47H78.3618L73.4418 41.456V47H70.8498V35H73.4418V40.304L78.0978 35H81.2658L75.9858 40.88L81.4578 47ZM91.2644 35H93.8564V47H91.2644V45.272C90.2884 46.632 88.8884 47.312 87.0644 47.312C85.4164 47.312 84.0084 46.704 82.8404 45.488C81.6724 44.256 81.0884 42.76 81.0884 41C81.0884 39.224 81.6724 37.728 82.8404 36.512C84.0084 35.296 85.4164 34.688 87.0644 34.688C88.8884 34.688 90.2884 35.36 91.2644 36.704V35ZM84.7604 43.76C85.4804 44.48 86.3844 44.84 87.4724 44.84C88.5604 44.84 89.4644 44.48 90.1844 43.76C90.9044 43.024 91.2644 42.104 91.2644 41C91.2644 39.896 90.9044 38.984 90.1844 38.264C89.4644 37.528 88.5604 37.16 87.4724 37.16C86.3844 37.16 85.4804 37.528 84.7604 38.264C84.0404 38.984 83.6804 39.896 83.6804 41C83.6804 42.104 84.0404 43.024 84.7604 43.76ZM103.19 34.688C104.838 34.688 106.246 35.304 107.414 36.536C108.582 37.752 109.166 39.24 109.166 41C109.166 42.776 108.582 44.272 107.414 45.488C106.246 46.704 104.838 47.312 103.19 47.312C101.366 47.312 99.9656 46.64 98.9896 45.296V51.8H96.3976V35H98.9896V36.728C99.9656 35.368 101.366 34.688 103.19 34.688ZM100.07 43.76C100.79 44.48 101.694 44.84 102.782 44.84C103.87 44.84 104.774 44.48 105.494 43.76C106.214 43.024 106.574 42.104 106.574 41C106.574 39.896 106.214 38.984 105.494 38.264C104.774 37.528 103.87 37.16 102.782 37.16C101.694 37.16 100.79 37.528 100.07 38.264C99.3496 38.984 98.9896 39.896 98.9896 41C98.9896 42.104 99.3496 43.024 100.07 43.76ZM119.734 35V37.496H115.822V47H113.23V37.496H109.294V35H119.734ZM137.088 44.552H138.696V50.216H136.152V47H127.92V50.216H125.376V44.552H126.84C127.576 43.512 127.944 42.064 127.944 40.208V35H137.088V44.552ZM129.696 44.552H134.544V37.376H130.488V40.208C130.488 41.92 130.224 43.368 129.696 44.552ZM147.113 34.688C148.761 34.688 150.169 35.304 151.337 36.536C152.505 37.752 153.089 39.24 153.089 41C153.089 42.776 152.505 44.272 151.337 45.488C150.169 46.704 148.761 47.312 147.113 47.312C145.289 47.312 143.889 46.64 142.913 45.296V51.8H140.321V35H142.913V36.728C143.889 35.368 145.289 34.688 147.113 34.688ZM143.993 43.76C144.713 44.48 145.617 44.84 146.705 44.84C147.793 44.84 148.697 44.48 149.417 43.76C150.137 43.024 150.497 42.104 150.497 41C150.497 39.896 150.137 38.984 149.417 38.264C148.697 37.528 147.793 37.16 146.705 37.16C145.617 37.16 144.713 37.528 143.993 38.264C143.273 38.984 142.913 39.896 142.913 41C142.913 42.104 143.273 43.024 143.993 43.76ZM162.578 35H165.338L160.73 47.384C160.17 48.904 159.386 50.04 158.378 50.792C157.37 51.544 156.202 51.88 154.874 51.8V49.376C155.69 49.424 156.346 49.256 156.842 48.872C157.354 48.504 157.762 47.904 158.066 47.072L158.138 46.904L153.098 35H155.858L159.506 43.736L162.578 35ZM174.519 35V37.496H169.071V47H166.479V35H174.519ZM184.483 35H186.475V47H183.931V39.368L177.787 47H175.795V35H178.339V42.608L184.483 35ZM199.731 47H196.731L193.755 42.896L190.755 47H187.731L192.243 40.832L187.971 35H190.971L193.731 38.792L196.491 35H199.515L195.243 40.856L199.731 47ZM212.08 47.312C210.24 47.312 208.736 46.72 207.568 45.536C206.416 44.336 205.84 42.808 205.84 40.952C205.84 38.92 206.144 37.352 206.752 36.248C207.36 35.128 208.592 34.112 210.448 33.2C210.752 33.056 211.2 32.848 211.792 32.576C212.4 32.304 212.816 32.112 213.04 32C213.264 31.872 213.544 31.696 213.88 31.472C214.216 31.232 214.464 30.984 214.624 30.728C214.784 30.456 214.912 30.136 215.008 29.768L217.12 30.992C217.056 31.344 216.952 31.672 216.808 31.976C216.664 32.264 216.456 32.536 216.184 32.792C215.912 33.048 215.672 33.256 215.464 33.416C215.272 33.576 214.944 33.768 214.48 33.992C214.016 34.216 213.672 34.376 213.448 34.472C213.24 34.568 212.84 34.736 212.248 34.976C211.192 35.392 210.416 35.824 209.92 36.272C209.44 36.704 209.104 37.248 208.912 37.904C209.872 36.816 211.176 36.272 212.824 36.272C214.232 36.272 215.456 36.776 216.496 37.784C217.552 38.792 218.08 40.096 218.08 41.696C218.08 43.328 217.52 44.672 216.4 45.728C215.296 46.784 213.856 47.312 212.08 47.312ZM212.056 44.888C213.064 44.888 213.888 44.592 214.528 44C215.168 43.392 215.488 42.624 215.488 41.696C215.488 40.752 215.168 39.976 214.528 39.368C213.904 38.76 213.088 38.456 212.08 38.456C211.184 38.456 210.376 38.744 209.656 39.32C208.936 39.88 208.576 40.632 208.576 41.576C208.576 42.536 208.912 43.328 209.584 43.952C210.256 44.576 211.08 44.888 212.056 44.888ZM229.153 35H231.745V47H229.153V45.272C228.177 46.632 226.777 47.312 224.953 47.312C223.305 47.312 221.897 46.704 220.729 45.488C219.561 44.256 218.977 42.76 218.977 41C218.977 39.224 219.561 37.728 220.729 36.512C221.897 35.296 223.305 34.688 224.953 34.688C226.777 34.688 228.177 35.36 229.153 36.704V35ZM222.649 43.76C223.369 44.48 224.273 44.84 225.361 44.84C226.449 44.84 227.353 44.48 228.073 43.76C228.793 43.024 229.153 42.104 229.153 41C229.153 39.896 228.793 38.984 228.073 38.264C227.353 37.528 226.449 37.16 225.361 37.16C224.273 37.16 223.369 37.528 222.649 38.264C221.929 38.984 221.569 39.896 221.569 41C221.569 42.104 221.929 43.024 222.649 43.76ZM242.374 35H244.966V47H242.374V42.224H236.878V47H234.286V35H236.878V39.776H242.374V35ZM258.102 47H255.006L250.086 41.456V47H247.494V35H250.086V40.304L254.742 35H257.91L252.63 40.88L258.102 47ZM264.068 47.312C262.308 47.312 260.812 46.704 259.58 45.488C258.348 44.272 257.732 42.776 257.732 41C257.732 39.224 258.348 37.728 259.58 36.512C260.812 35.296 262.308 34.688 264.068 34.688C265.844 34.688 267.34 35.296 268.556 36.512C269.788 37.728 270.404 39.224 270.404 41C270.404 42.776 269.788 44.272 268.556 45.488C267.34 46.704 265.844 47.312 264.068 47.312ZM261.404 43.712C262.124 44.432 263.012 44.792 264.068 44.792C265.124 44.792 266.012 44.432 266.732 43.712C267.452 42.992 267.812 42.088 267.812 41C267.812 39.912 267.452 39.008 266.732 38.288C266.012 37.568 265.124 37.208 264.068 37.208C263.012 37.208 262.124 37.568 261.404 38.288C260.684 39.008 260.324 39.912 260.324 41C260.324 42.088 260.684 42.992 261.404 43.712ZM280.572 40.832C281.756 41.376 282.348 42.296 282.348 43.592C282.348 44.6 282.004 45.424 281.316 46.064C280.644 46.688 279.676 47 278.412 47H272.268V35H277.932C279.164 35 280.116 35.312 280.788 35.936C281.476 36.544 281.82 37.336 281.82 38.312C281.82 39.448 281.404 40.288 280.572 40.832ZM277.74 37.208H274.74V39.872H277.74C278.796 39.872 279.324 39.424 279.324 38.528C279.324 37.648 278.796 37.208 277.74 37.208ZM278.172 44.744C279.26 44.744 279.804 44.272 279.804 43.328C279.804 42.912 279.66 42.592 279.372 42.368C279.084 42.128 278.684 42.008 278.172 42.008H274.74V44.744H278.172ZM287.341 44.12L285.661 50.36H283.501L284.461 44.12H287.341ZM30.176 76.312C28.368 76.312 26.856 75.704 25.64 74.488C24.44 73.272 23.84 71.776 23.84 70C23.84 68.208 24.44 66.712 25.64 65.512C26.856 64.296 28.368 63.688 30.176 63.688C31.344 63.688 32.408 63.968 33.368 64.528C34.328 65.088 35.048 65.84 35.528 66.784L33.296 68.08C33.024 67.504 32.608 67.056 32.048 66.736C31.504 66.4 30.872 66.232 30.152 66.232C29.096 66.232 28.208 66.592 27.488 67.312C26.784 68.032 26.432 68.928 26.432 70C26.432 71.072 26.784 71.968 27.488 72.688C28.208 73.408 29.096 73.768 30.152 73.768C30.856 73.768 31.488 73.6 32.048 73.264C32.624 72.928 33.056 72.48 33.344 71.92L35.576 73.192C35.064 74.152 34.328 74.912 33.368 75.472C32.408 76.032 31.344 76.312 30.176 76.312ZM44.6591 64H47.4191L42.8111 76.384C42.2511 77.904 41.4671 79.04 40.4591 79.792C39.4511 80.544 38.2831 80.88 36.9551 80.8V78.376C37.7711 78.424 38.4271 78.256 38.9231 77.872C39.4351 77.504 39.8431 76.904 40.1471 76.072L40.2191 75.904L35.1791 64H37.9391L41.5871 72.736L44.6591 64ZM59.2398 64V76H56.6478V66.448H51.1518V76H48.5598V64H59.2398ZM63.8073 71.104C63.9993 72.016 64.4393 72.72 65.1273 73.216C65.8153 73.696 66.6553 73.936 67.6473 73.936C69.0233 73.936 70.0553 73.44 70.7433 72.448L72.8793 73.696C71.6953 75.44 69.9433 76.312 67.6233 76.312C65.6713 76.312 64.0953 75.72 62.8953 74.536C61.6953 73.336 61.0953 71.824 61.0953 70C61.0953 68.208 61.6873 66.712 62.8713 65.512C64.0553 64.296 65.5753 63.688 67.4313 63.688C69.1913 63.688 70.6313 64.304 71.7513 65.536C72.8873 66.768 73.4553 68.264 73.4553 70.024C73.4553 70.296 73.4233 70.656 73.3593 71.104H63.8073ZM63.7833 68.992H70.8393C70.6633 68.016 70.2553 67.28 69.6153 66.784C68.9913 66.288 68.2553 66.04 67.4073 66.04C66.4473 66.04 65.6473 66.304 65.0073 66.832C64.3673 67.36 63.9593 68.08 63.7833 68.992ZM82.0481 63.688C83.6961 63.688 85.1041 64.304 86.2721 65.536C87.4401 66.752 88.0241 68.24 88.0241 70C88.0241 71.776 87.4401 73.272 86.2721 74.488C85.1041 75.704 83.6961 76.312 82.0481 76.312C80.2241 76.312 78.8241 75.64 77.8481 74.296V80.8H75.2561V64H77.8481V65.728C78.8241 64.368 80.2241 63.688 82.0481 63.688ZM78.9281 72.76C79.6481 73.48 80.5521 73.84 81.6401 73.84C82.7281 73.84 83.6321 73.48 84.3521 72.76C85.0721 72.024 85.4321 71.104 85.4321 70C85.4321 68.896 85.0721 67.984 84.3521 67.264C83.6321 66.528 82.7281 66.16 81.6401 66.16C80.5521 66.16 79.6481 66.528 78.9281 67.264C78.2081 67.984 77.8481 68.896 77.8481 70C77.8481 71.104 78.2081 72.024 78.9281 72.76ZM102.133 64V76H99.6132V68.104L96.1572 73.6H95.8452L92.4132 68.128V76H89.8932V64H92.5332L96.0132 69.544L99.4932 64H102.133ZM114.152 64H116.744V76H114.152V74.272C113.176 75.632 111.776 76.312 109.952 76.312C108.304 76.312 106.896 75.704 105.728 74.488C104.56 73.256 103.976 71.76 103.976 70C103.976 68.224 104.56 66.728 105.728 65.512C106.896 64.296 108.304 63.688 109.952 63.688C111.776 63.688 113.176 64.36 114.152 65.704V64ZM107.648 72.76C108.368 73.48 109.272 73.84 110.36 73.84C111.448 73.84 112.352 73.48 113.072 72.76C113.792 72.024 114.152 71.104 114.152 70C114.152 68.896 113.792 67.984 113.072 67.264C112.352 66.528 111.448 66.16 110.36 66.16C109.272 66.16 108.368 66.528 107.648 67.264C106.928 67.984 106.568 68.896 106.568 70C106.568 71.104 106.928 72.024 107.648 72.76ZM126.077 63.688C127.725 63.688 129.133 64.304 130.301 65.536C131.469 66.752 132.053 68.24 132.053 70C132.053 71.776 131.469 73.272 130.301 74.488C129.133 75.704 127.725 76.312 126.077 76.312C124.253 76.312 122.853 75.64 121.877 74.296V80.8H119.285V64H121.877V65.728C122.853 64.368 124.253 63.688 126.077 63.688ZM122.957 72.76C123.677 73.48 124.581 73.84 125.669 73.84C126.757 73.84 127.661 73.48 128.381 72.76C129.101 72.024 129.461 71.104 129.461 70C129.461 68.896 129.101 67.984 128.381 67.264C127.661 66.528 126.757 66.16 125.669 66.16C124.581 66.16 123.677 66.528 122.957 67.264C122.237 67.984 121.877 68.896 121.877 70C121.877 71.104 122.237 72.024 122.957 72.76ZM144.53 76H141.434L136.514 70.456V76H133.922V64H136.514V69.304L141.17 64H144.338L139.058 69.88L144.53 76ZM146.873 71.104C147.065 72.016 147.505 72.72 148.193 73.216C148.881 73.696 149.721 73.936 150.713 73.936C152.089 73.936 153.121 73.44 153.809 72.448L155.945 73.696C154.761 75.44 153.009 76.312 150.689 76.312C148.737 76.312 147.161 75.72 145.961 74.536C144.761 73.336 144.161 71.824 144.161 70C144.161 68.208 144.753 66.712 145.937 65.512C147.121 64.296 148.641 63.688 150.497 63.688C152.257 63.688 153.697 64.304 154.817 65.536C155.953 66.768 156.521 68.264 156.521 70.024C156.521 70.296 156.489 70.656 156.425 71.104H146.873ZM146.849 68.992H153.905C153.729 68.016 153.321 67.28 152.681 66.784C152.057 66.288 151.321 66.04 150.473 66.04C149.513 66.04 148.713 66.304 148.073 66.832C147.433 67.36 147.025 68.08 146.849 68.992ZM167.021 64V66.496H163.109V76H160.517V66.496H156.581V64H167.021ZM173.49 76.312C171.73 76.312 170.234 75.704 169.002 74.488C167.77 73.272 167.154 71.776 167.154 70C167.154 68.224 167.77 66.728 169.002 65.512C170.234 64.296 171.73 63.688 173.49 63.688C175.266 63.688 176.762 64.296 177.978 65.512C179.21 66.728 179.826 68.224 179.826 70C179.826 71.776 179.21 73.272 177.978 74.488C176.762 75.704 175.266 76.312 173.49 76.312ZM170.826 72.712C171.546 73.432 172.434 73.792 173.49 73.792C174.546 73.792 175.434 73.432 176.154 72.712C176.874 71.992 177.234 71.088 177.234 70C177.234 68.912 176.874 68.008 176.154 67.288C175.434 66.568 174.546 66.208 173.49 66.208C172.434 66.208 171.546 66.568 170.826 67.288C170.106 68.008 169.746 68.912 169.746 70C169.746 71.088 170.106 71.992 170.826 72.712ZM189.994 69.832C191.178 70.376 191.77 71.296 191.77 72.592C191.77 73.6 191.426 74.424 190.738 75.064C190.066 75.688 189.098 76 187.834 76H181.69V64H187.354C188.586 64 189.538 64.312 190.21 64.936C190.898 65.544 191.242 66.336 191.242 67.312C191.242 68.448 190.826 69.288 189.994 69.832ZM187.162 66.208H184.162V68.872H187.162C188.218 68.872 188.746 68.424 188.746 67.528C188.746 66.648 188.218 66.208 187.162 66.208ZM187.594 73.744C188.682 73.744 189.226 73.272 189.226 72.328C189.226 71.912 189.082 71.592 188.794 71.368C188.506 71.128 188.106 71.008 187.594 71.008H184.162V73.744H187.594ZM196.763 73.12L195.083 79.36H192.923L193.883 73.12H196.763ZM215.666 76L214.49 72.616H207.338L206.162 76H203.162L209.258 59.2H212.57L218.642 76H215.666ZM208.25 70.024H213.578L210.914 62.44L208.25 70.024ZM228.513 67.288C230.225 68.104 231.081 69.456 231.081 71.344C231.081 72.816 230.521 74.016 229.401 74.944C228.297 75.856 226.849 76.312 225.057 76.312C221.985 76.312 219.953 75.016 218.961 72.424L221.337 71.056C221.833 72.832 223.073 73.72 225.057 73.72C226.113 73.72 226.921 73.496 227.481 73.048C228.041 72.584 228.321 71.968 228.321 71.2C228.321 70.448 228.049 69.848 227.505 69.4C226.977 68.936 226.225 68.704 225.249 68.704H223.209V66.208H224.697C225.641 66.208 226.377 65.992 226.905 65.56C227.433 65.128 227.697 64.552 227.697 63.832C227.697 63.112 227.457 62.544 226.977 62.128C226.497 61.696 225.809 61.48 224.913 61.48C223.249 61.48 222.129 62.24 221.553 63.76L219.201 62.392C220.289 60.056 222.193 58.888 224.913 58.888C226.561 58.888 227.897 59.336 228.921 60.232C229.945 61.112 230.457 62.264 230.457 63.688C230.457 65.272 229.809 66.472 228.513 67.288ZM240.956 76.312C238.428 76.312 236.332 75.48 234.668 73.816C233.004 72.136 232.172 70.064 232.172 67.6C232.172 65.136 233.004 63.072 234.668 61.408C236.332 59.728 238.428 58.888 240.956 58.888C242.476 58.888 243.876 59.248 245.156 59.968C246.452 60.688 247.46 61.664 248.18 62.896L245.78 64.288C245.332 63.456 244.676 62.8 243.812 62.32C242.964 61.824 242.012 61.576 240.956 61.576C239.164 61.576 237.708 62.144 236.588 63.28C235.484 64.416 234.932 65.856 234.932 67.6C234.932 69.344 235.484 70.784 236.588 71.92C237.708 73.056 239.164 73.624 240.956 73.624C242.012 73.624 242.972 73.384 243.836 72.904C244.7 72.408 245.348 71.744 245.78 70.912L248.18 72.28C247.476 73.512 246.476 74.496 245.18 75.232C243.9 75.952 242.492 76.312 240.956 76.312Z" fill="#1A3555"/>
<path d="M29.72 103V110H28.796V103.896H25.632V107.018C25.632 108.185 25.408 108.987 24.96 109.426C24.5213 109.865 23.9147 110.056 23.14 110V109.132C23.672 109.188 24.064 109.062 24.316 108.754C24.5773 108.446 24.708 107.867 24.708 107.018V103H29.72ZM37.5433 109.118C36.8339 109.818 35.9659 110.168 34.9393 110.168C33.9126 110.168 33.0399 109.818 32.3213 109.118C31.6119 108.409 31.2573 107.536 31.2573 106.5C31.2573 105.464 31.6119 104.596 32.3213 103.896C33.0399 103.187 33.9126 102.832 34.9393 102.832C35.9659 102.832 36.8339 103.187 37.5433 103.896C38.2619 104.596 38.6213 105.464 38.6213 106.5C38.6213 107.536 38.2619 108.409 37.5433 109.118ZM32.9793 108.474C33.5113 109.006 34.1646 109.272 34.9393 109.272C35.7139 109.272 36.3673 109.006 36.8993 108.474C37.4313 107.933 37.6973 107.275 37.6973 106.5C37.6973 105.725 37.4313 105.072 36.8993 104.54C36.3673 103.999 35.7139 103.728 34.9393 103.728C34.1646 103.728 33.5113 103.999 32.9793 104.54C32.4473 105.072 32.1813 105.725 32.1813 106.5C32.1813 107.275 32.4473 107.933 32.9793 108.474ZM44.9341 103V110H44.0101V107.312H42.8061L40.6501 110H39.4741L41.6861 107.284C41.1261 107.2 40.6641 106.967 40.3001 106.584C39.9361 106.201 39.7541 105.73 39.7541 105.17C39.7541 104.535 39.9781 104.017 40.4261 103.616C40.8834 103.205 41.4387 103 42.0921 103H44.9341ZM42.0921 106.444H44.0101V103.896H42.0921C41.7001 103.896 41.3641 104.013 41.0841 104.246C40.8134 104.479 40.6781 104.787 40.6781 105.17C40.6781 105.553 40.8134 105.861 41.0841 106.094C41.3641 106.327 41.7001 106.444 42.0921 106.444ZM52.6341 103V110H51.7101V103.896H48.5461V107.018C48.5461 108.185 48.3221 108.987 47.8741 109.426C47.4354 109.865 46.8287 110.056 46.0541 110V109.132C46.5861 109.188 46.9781 109.062 47.2301 108.754C47.4914 108.446 47.6221 107.867 47.6221 107.018V103H52.6341ZM57.4333 105.66C58.0867 105.66 58.6373 105.865 59.0853 106.276C59.5427 106.677 59.7713 107.195 59.7713 107.83C59.7713 108.465 59.5427 108.987 59.0853 109.398C58.6373 109.799 58.0867 110 57.4333 110H54.5913V103H55.5153V105.66H57.4333ZM57.4333 109.104C57.8253 109.104 58.1567 108.987 58.4273 108.754C58.7073 108.521 58.8473 108.213 58.8473 107.83C58.8473 107.447 58.7073 107.139 58.4273 106.906C58.1567 106.673 57.8253 106.556 57.4333 106.556H55.5153V109.104H57.4333ZM66.1235 103H67.0475V110H66.1235V106.948H62.0915V110H61.1675V103H62.0915V106.052H66.1235V103ZM71.8435 105.66C72.4968 105.66 73.0475 105.865 73.4955 106.276C73.9528 106.677 74.1815 107.195 74.1815 107.83C74.1815 108.465 73.9528 108.987 73.4955 109.398C73.0475 109.799 72.4968 110 71.8435 110H69.0015V103H69.9255V105.66H71.8435ZM75.1615 103H76.0855V110H75.1615V103ZM71.8435 109.104C72.2355 109.104 72.5668 108.987 72.8375 108.754C73.1175 108.521 73.2575 108.213 73.2575 107.83C73.2575 107.447 73.1175 107.139 72.8375 106.906C72.5668 106.673 72.2355 106.556 71.8435 106.556H69.9255V109.104H71.8435ZM79.1723 101.88V101.068H82.8123V101.88H79.1723ZM83.1483 103H83.9323V110H83.0083V104.61L78.8363 110H78.0523V103H78.9763V108.39L83.1483 103ZM94.4263 103V103.896H91.9483V110H91.0243V103.896H88.5463V103H94.4263ZM101.299 103H102.223V110H101.299V108.628C100.655 109.655 99.7122 110.168 98.4708 110.168C97.4722 110.168 96.6182 109.813 95.9088 109.104C95.2088 108.395 94.8588 107.527 94.8588 106.5C94.8588 105.473 95.2088 104.605 95.9088 103.896C96.6182 103.187 97.4722 102.832 98.4708 102.832C99.7122 102.832 100.655 103.345 101.299 104.372V103ZM96.5808 108.474C97.1128 109.006 97.7662 109.272 98.5408 109.272C99.3155 109.272 99.9688 109.006 100.501 108.474C101.033 107.933 101.299 107.275 101.299 106.5C101.299 105.725 101.033 105.072 100.501 104.54C99.9688 103.999 99.3155 103.728 98.5408 103.728C97.7662 103.728 97.1128 103.999 96.5808 104.54C96.0488 105.072 95.7828 105.725 95.7828 106.5C95.7828 107.275 96.0488 107.933 96.5808 108.474ZM107.931 102.832C108.93 102.832 109.779 103.187 110.479 103.896C111.189 104.605 111.543 105.473 111.543 106.5C111.543 107.527 111.189 108.395 110.479 109.104C109.779 109.813 108.93 110.168 107.931 110.168C106.69 110.168 105.747 109.655 105.103 108.628V112.8H104.179V103H105.103V104.372C105.747 103.345 106.69 102.832 107.931 102.832ZM105.901 108.474C106.433 109.006 107.087 109.272 107.861 109.272C108.636 109.272 109.289 109.006 109.821 108.474C110.353 107.933 110.619 107.275 110.619 106.5C110.619 105.725 110.353 105.072 109.821 104.54C109.289 103.999 108.636 103.728 107.861 103.728C107.087 103.728 106.433 103.999 105.901 104.54C105.369 105.072 105.103 105.725 105.103 106.5C105.103 107.275 105.369 107.933 105.901 108.474ZM118.176 103H118.96V110H118.036V104.61L113.864 110H113.08V103H114.004V108.39L118.176 103ZM127.746 104.008C128.418 104.689 128.754 105.52 128.754 106.5C128.754 107.48 128.418 108.311 127.746 108.992C127.074 109.673 126.187 110.061 125.086 110.154V112.8H124.162V110.154C123.06 110.061 122.174 109.673 121.502 108.992C120.83 108.311 120.494 107.48 120.494 106.5C120.494 105.52 120.83 104.689 121.502 104.008C122.174 103.327 123.06 102.939 124.162 102.846V100.2H125.086V102.846C126.187 102.939 127.074 103.327 127.746 104.008ZM122.16 104.652C121.665 105.156 121.418 105.772 121.418 106.5C121.418 107.228 121.665 107.849 122.16 108.362C122.654 108.866 123.322 109.16 124.162 109.244V103.756C123.322 103.84 122.654 104.139 122.16 104.652ZM125.086 109.244C125.926 109.16 126.593 108.866 127.088 108.362C127.582 107.849 127.83 107.228 127.83 106.5C127.83 105.772 127.582 105.156 127.088 104.652C126.593 104.139 125.926 103.84 125.086 103.756V109.244Z" fill="#1A3555"/>
</g>
<defs>
<filter id="filter0_d_11_159" x="0" y="0" width="388" height="228" filterUnits="userSpaceOnUse" color-interpolation-filters="sRGB">
<feFlood flood-opacity="0" result="BackgroundImageFix"/>
<feColorMatrix in="SourceAlpha" type="matrix" values="0 0 0 0 0 0 0 0 0 0 0 0 0 0 0 0 0 0 127 0" result="hardAlpha"/>
<feOffset dy="4"/>
<feGaussianBlur stdDeviation="2"/>
<feColorMatrix type="matrix" values="0 0 0 0 0 0 0 0 0 0 0 0 0 0 0 0 0 0 0.1 0"/>
<feBlend mode="normal" in2="BackgroundImageFix" result="effect1_dropShadow_11_159"/>
<feBlend mode="normal" in="SourceGraphic" in2="effect1_dropShadow_11_159" result="shape"/>
</filter>
</defs>
</svg>
