<svg width="388" height="228" viewBox="0 0 388 228" fill="none" xmlns="http://www.w3.org/2000/svg">
<g filter="url(#filter0_d_11_169)">
<rect x="4" width="380" height="220" rx="20" fill="white"/>
<path d="M232.691 192V187.68L244.403 175.728C247.251 172.88 248.675 170.416 248.675 168.336C248.675 166.704 248.179 165.44 247.187 164.544C246.227 163.616 244.995 163.152 243.491 163.152C240.675 163.152 238.595 164.544 237.251 167.328L232.595 164.592C233.651 162.352 235.139 160.656 237.059 159.504C238.979 158.352 241.107 157.776 243.443 157.776C246.387 157.776 248.915 158.704 251.027 160.56C253.139 162.416 254.195 164.944 254.195 168.144C254.195 171.568 252.291 175.216 248.483 179.088L240.899 186.672H254.819V192H232.691ZM266.833 186.24L263.473 198.72H259.153L261.073 186.24H266.833ZM289.617 174.528C292.913 176.352 294.561 179.072 294.561 182.688C294.561 185.76 293.489 188.192 291.345 189.984C289.201 191.744 286.353 192.624 282.801 192.624C279.249 192.624 276.385 191.744 274.209 189.984C272.065 188.192 270.993 185.76 270.993 182.688C270.993 180.96 271.425 179.392 272.289 177.984C273.153 176.544 274.369 175.392 275.937 174.528C273.409 172.864 272.145 170.496 272.145 167.424C272.145 164.352 273.169 161.984 275.217 160.32C277.265 158.624 279.793 157.776 282.801 157.776C285.777 157.776 288.289 158.624 290.337 160.32C292.417 161.984 293.457 164.352 293.457 167.424C293.457 170.496 292.177 172.864 289.617 174.528ZM282.801 163.008C281.297 163.008 280.065 163.408 279.105 164.208C278.145 165.008 277.665 166.16 277.665 167.664C277.665 169.104 278.145 170.24 279.105 171.072C280.097 171.904 281.329 172.32 282.801 172.32C284.241 172.32 285.457 171.904 286.449 171.072C287.441 170.24 287.937 169.104 287.937 167.664C287.937 166.16 287.441 165.008 286.449 164.208C285.489 163.408 284.273 163.008 282.801 163.008ZM282.801 187.392C284.657 187.392 286.161 186.944 287.313 186.048C288.465 185.12 289.041 183.824 289.041 182.16C289.041 180.496 288.465 179.216 287.313 178.32C286.161 177.392 284.657 176.928 282.801 176.928C280.913 176.928 279.393 177.392 278.241 178.32C277.089 179.216 276.513 180.496 276.513 182.16C276.513 183.824 277.089 185.12 278.241 186.048C279.393 186.944 280.913 187.392 282.801 187.392ZM323.712 180.816V185.952H319.872V192H314.304V185.952H297.792V180.816L309.359 158.4H315.36L303.792 180.816H314.304V172.08H319.872V180.816H323.712ZM337.981 170.928C336.509 172.4 334.653 173.136 332.413 173.136C330.173 173.136 328.301 172.4 326.797 170.928C325.293 169.424 324.541 167.6 324.541 165.456C324.541 163.312 325.293 161.504 326.797 160.032C328.301 158.528 330.173 157.776 332.413 157.776C334.653 157.776 336.509 158.512 337.981 159.984C339.485 161.456 340.237 163.28 340.237 165.456C340.237 167.6 339.485 169.424 337.981 170.928ZM332.365 168.912C333.389 168.912 334.221 168.576 334.861 167.904C335.501 167.232 335.821 166.416 335.821 165.456C335.821 164.464 335.501 163.632 334.861 162.96C334.221 162.288 333.389 161.952 332.365 161.952C331.373 161.952 330.557 162.288 329.917 162.96C329.277 163.632 328.957 164.464 328.957 165.456C328.957 166.416 329.277 167.232 329.917 167.904C330.557 168.576 331.373 168.912 332.365 168.912ZM327.373 187.056L349.501 162.432L352.093 163.92L329.965 188.592L327.373 187.056ZM347.773 192.576C345.533 192.576 343.661 191.84 342.157 190.368C340.653 188.864 339.901 187.04 339.901 184.896C339.901 182.752 340.653 180.944 342.157 179.472C343.661 177.968 345.533 177.216 347.773 177.216C349.981 177.216 351.837 177.968 353.341 179.472C354.845 180.944 355.597 182.752 355.597 184.896C355.597 187.04 354.845 188.864 353.341 190.368C351.837 191.84 349.981 192.576 347.773 192.576ZM347.725 188.352C348.749 188.352 349.581 188.016 350.221 187.344C350.861 186.672 351.181 185.856 351.181 184.896C351.181 183.904 350.861 183.072 350.221 182.4C349.581 181.728 348.749 181.392 347.725 181.392C346.733 181.392 345.917 181.728 345.277 182.4C344.637 183.072 344.317 183.904 344.317 184.896C344.317 185.856 344.637 186.672 345.277 187.344C345.917 188.016 346.733 188.352 347.725 188.352Z" fill="#E33030"/>
<path d="M37.28 44.36H39.08V50.216H36.32V47H26.12V50.216H23.36V44.36H24.92C25.896 43.08 26.384 41.152 26.384 38.576V30.2H37.28V44.36ZM27.944 44.36H34.52V32.792H29.144V38.624C29.144 41.12 28.744 43.032 27.944 44.36ZM50.9647 35V47H48.3727V37.496H44.3647V41.96C44.3647 43.864 43.9487 45.216 43.1167 46.016C42.2847 46.816 41.1007 47.144 39.5647 47V44.576C40.3007 44.704 40.8527 44.552 41.2207 44.12C41.5887 43.688 41.7727 42.928 41.7727 41.84V35H50.9647ZM62.7931 35V47H60.2491V42.968H58.8091L55.7611 47H52.7131L55.9531 42.728C55.1211 42.456 54.4491 41.976 53.9371 41.288C53.4411 40.6 53.1931 39.832 53.1931 38.984C53.1931 37.88 53.5851 36.944 54.3691 36.176C55.1691 35.392 56.1931 35 57.4411 35H62.7931ZM57.5851 40.736H60.2491V37.352H57.5851C57.0571 37.352 56.6171 37.504 56.2651 37.808C55.9131 38.112 55.7371 38.528 55.7371 39.056C55.7371 39.568 55.9131 39.976 56.2651 40.28C56.6171 40.584 57.0571 40.736 57.5851 40.736ZM81.4578 47H78.3618L73.4418 41.456V47H70.8498V35H73.4418V40.304L78.0978 35H81.2658L75.9858 40.88L81.4578 47ZM91.2644 35H93.8564V47H91.2644V45.272C90.2884 46.632 88.8884 47.312 87.0644 47.312C85.4164 47.312 84.0084 46.704 82.8404 45.488C81.6724 44.256 81.0884 42.76 81.0884 41C81.0884 39.224 81.6724 37.728 82.8404 36.512C84.0084 35.296 85.4164 34.688 87.0644 34.688C88.8884 34.688 90.2884 35.36 91.2644 36.704V35ZM84.7604 43.76C85.4804 44.48 86.3844 44.84 87.4724 44.84C88.5604 44.84 89.4644 44.48 90.1844 43.76C90.9044 43.024 91.2644 42.104 91.2644 41C91.2644 39.896 90.9044 38.984 90.1844 38.264C89.4644 37.528 88.5604 37.16 87.4724 37.16C86.3844 37.16 85.4804 37.528 84.7604 38.264C84.0404 38.984 83.6804 39.896 83.6804 41C83.6804 42.104 84.0404 43.024 84.7604 43.76ZM103.19 34.688C104.838 34.688 106.246 35.304 107.414 36.536C108.582 37.752 109.166 39.24 109.166 41C109.166 42.776 108.582 44.272 107.414 45.488C106.246 46.704 104.838 47.312 103.19 47.312C101.366 47.312 99.9656 46.64 98.9896 45.296V51.8H96.3976V35H98.9896V36.728C99.9656 35.368 101.366 34.688 103.19 34.688ZM100.07 43.76C100.79 44.48 101.694 44.84 102.782 44.84C103.87 44.84 104.774 44.48 105.494 43.76C106.214 43.024 106.574 42.104 106.574 41C106.574 39.896 106.214 38.984 105.494 38.264C104.774 37.528 103.87 37.16 102.782 37.16C101.694 37.16 100.79 37.528 100.07 38.264C99.3496 38.984 98.9896 39.896 98.9896 41C98.9896 42.104 99.3496 43.024 100.07 43.76ZM119.734 35V37.496H115.822V47H113.23V37.496H109.294V35H119.734ZM137.088 44.552H138.696V50.216H136.152V47H127.92V50.216H125.376V44.552H126.84C127.576 43.512 127.944 42.064 127.944 40.208V35H137.088V44.552ZM129.696 44.552H134.544V37.376H130.488V40.208C130.488 41.92 130.224 43.368 129.696 44.552ZM147.113 34.688C148.761 34.688 150.169 35.304 151.337 36.536C152.505 37.752 153.089 39.24 153.089 41C153.089 42.776 152.505 44.272 151.337 45.488C150.169 46.704 148.761 47.312 147.113 47.312C145.289 47.312 143.889 46.64 142.913 45.296V51.8H140.321V35H142.913V36.728C143.889 35.368 145.289 34.688 147.113 34.688ZM143.993 43.76C144.713 44.48 145.617 44.84 146.705 44.84C147.793 44.84 148.697 44.48 149.417 43.76C150.137 43.024 150.497 42.104 150.497 41C150.497 39.896 150.137 38.984 149.417 38.264C148.697 37.528 147.793 37.16 146.705 37.16C145.617 37.16 144.713 37.528 143.993 38.264C143.273 38.984 142.913 39.896 142.913 41C142.913 42.104 143.273 43.024 143.993 43.76ZM162.578 35H165.338L160.73 47.384C160.17 48.904 159.386 50.04 158.378 50.792C157.37 51.544 156.202 51.88 154.874 51.8V49.376C155.69 49.424 156.346 49.256 156.842 48.872C157.354 48.504 157.762 47.904 158.066 47.072L158.138 46.904L153.098 35H155.858L159.506 43.736L162.578 35ZM174.519 35V37.496H169.071V47H166.479V35H174.519ZM184.483 35H186.475V47H183.931V39.368L177.787 47H175.795V35H178.339V42.608L184.483 35ZM199.731 47H196.731L193.755 42.896L190.755 47H187.731L192.243 40.832L187.971 35H190.971L193.731 38.792L196.491 35H199.515L195.243 40.856L199.731 47ZM212.08 47.312C210.24 47.312 208.736 46.72 207.568 45.536C206.416 44.336 205.84 42.808 205.84 40.952C205.84 38.92 206.144 37.352 206.752 36.248C207.36 35.128 208.592 34.112 210.448 33.2C210.752 33.056 211.2 32.848 211.792 32.576C212.4 32.304 212.816 32.112 213.04 32C213.264 31.872 213.544 31.696 213.88 31.472C214.216 31.232 214.464 30.984 214.624 30.728C214.784 30.456 214.912 30.136 215.008 29.768L217.12 30.992C217.056 31.344 216.952 31.672 216.808 31.976C216.664 32.264 216.456 32.536 216.184 32.792C215.912 33.048 215.672 33.256 215.464 33.416C215.272 33.576 214.944 33.768 214.48 33.992C214.016 34.216 213.672 34.376 213.448 34.472C213.24 34.568 212.84 34.736 212.248 34.976C211.192 35.392 210.416 35.824 209.92 36.272C209.44 36.704 209.104 37.248 208.912 37.904C209.872 36.816 211.176 36.272 212.824 36.272C214.232 36.272 215.456 36.776 216.496 37.784C217.552 38.792 218.08 40.096 218.08 41.696C218.08 43.328 217.52 44.672 216.4 45.728C215.296 46.784 213.856 47.312 212.08 47.312ZM212.056 44.888C213.064 44.888 213.888 44.592 214.528 44C215.168 43.392 215.488 42.624 215.488 41.696C215.488 40.752 215.168 39.976 214.528 39.368C213.904 38.76 213.088 38.456 212.08 38.456C211.184 38.456 210.376 38.744 209.656 39.32C208.936 39.88 208.576 40.632 208.576 41.576C208.576 42.536 208.912 43.328 209.584 43.952C210.256 44.576 211.08 44.888 212.056 44.888ZM229.153 35H231.745V47H229.153V45.272C228.177 46.632 226.777 47.312 224.953 47.312C223.305 47.312 221.897 46.704 220.729 45.488C219.561 44.256 218.977 42.76 218.977 41C218.977 39.224 219.561 37.728 220.729 36.512C221.897 35.296 223.305 34.688 224.953 34.688C226.777 34.688 228.177 35.36 229.153 36.704V35ZM222.649 43.76C223.369 44.48 224.273 44.84 225.361 44.84C226.449 44.84 227.353 44.48 228.073 43.76C228.793 43.024 229.153 42.104 229.153 41C229.153 39.896 228.793 38.984 228.073 38.264C227.353 37.528 226.449 37.16 225.361 37.16C224.273 37.16 223.369 37.528 222.649 38.264C221.929 38.984 221.569 39.896 221.569 41C221.569 42.104 221.929 43.024 222.649 43.76ZM242.374 35H244.966V47H242.374V42.224H236.878V47H234.286V35H236.878V39.776H242.374V35ZM258.102 47H255.006L250.086 41.456V47H247.494V35H250.086V40.304L254.742 35H257.91L252.63 40.88L258.102 47ZM264.068 47.312C262.308 47.312 260.812 46.704 259.58 45.488C258.348 44.272 257.732 42.776 257.732 41C257.732 39.224 258.348 37.728 259.58 36.512C260.812 35.296 262.308 34.688 264.068 34.688C265.844 34.688 267.34 35.296 268.556 36.512C269.788 37.728 270.404 39.224 270.404 41C270.404 42.776 269.788 44.272 268.556 45.488C267.34 46.704 265.844 47.312 264.068 47.312ZM261.404 43.712C262.124 44.432 263.012 44.792 264.068 44.792C265.124 44.792 266.012 44.432 266.732 43.712C267.452 42.992 267.812 42.088 267.812 41C267.812 39.912 267.452 39.008 266.732 38.288C266.012 37.568 265.124 37.208 264.068 37.208C263.012 37.208 262.124 37.568 261.404 38.288C260.684 39.008 260.324 39.912 260.324 41C260.324 42.088 260.684 42.992 261.404 43.712ZM280.572 40.832C281.756 41.376 282.348 42.296 282.348 43.592C282.348 44.6 282.004 45.424 281.316 46.064C280.644 46.688 279.676 47 278.412 47H272.268V35H277.932C279.164 35 280.116 35.312 280.788 35.936C281.476 36.544 281.82 37.336 281.82 38.312C281.82 39.448 281.404 40.288 280.572 40.832ZM277.74 37.208H274.74V39.872H277.74C278.796 39.872 279.324 39.424 279.324 38.528C279.324 37.648 278.796 37.208 277.74 37.208ZM278.172 44.744C279.26 44.744 279.804 44.272 279.804 43.328C279.804 42.912 279.66 42.592 279.372 42.368C279.084 42.128 278.684 42.008 278.172 42.008H274.74V44.744H278.172ZM35.072 73.552H36.68V79.216H34.136V76H25.904V79.216H23.36V73.552H24.824C25.56 72.512 25.928 71.064 25.928 69.208V64H35.072V73.552ZM27.68 73.552H32.528V66.376H28.472V69.208C28.472 70.92 28.208 72.368 27.68 73.552ZM48.4334 64V76H45.8414V66.496H41.8334V70.96C41.8334 72.864 41.4174 74.216 40.5854 75.016C39.7534 75.816 38.5694 76.144 37.0334 76V73.576C37.7694 73.704 38.3214 73.552 38.6894 73.12C39.0574 72.688 39.2414 71.928 39.2414 70.84V64H48.4334ZM60.2619 64V76H57.7179V71.968H56.2779L53.2299 76H50.1819L53.4219 71.728C52.5899 71.456 51.9179 70.976 51.4059 70.288C50.9099 69.6 50.6619 68.832 50.6619 67.984C50.6619 66.88 51.0539 65.944 51.8379 65.176C52.6379 64.392 53.6619 64 54.9099 64H60.2619ZM55.0539 69.736H57.7179V66.352H55.0539C54.5259 66.352 54.0859 66.504 53.7339 66.808C53.3819 67.112 53.2059 67.528 53.2059 68.056C53.2059 68.568 53.3819 68.976 53.7339 69.28C54.0859 69.584 54.5259 69.736 55.0539 69.736ZM78.4466 64V76H75.8546V66.496H71.8466V70.96C71.8466 72.864 71.4306 74.216 70.5986 75.016C69.7666 75.816 68.5826 76.144 67.0466 76V73.576C67.7826 73.704 68.3346 73.552 68.7026 73.12C69.0706 72.688 69.2546 71.928 69.2546 70.84V64H78.4466ZM91.691 63.688C93.451 63.688 94.947 64.296 96.179 65.512C97.411 66.728 98.027 68.224 98.027 70C98.027 71.776 97.411 73.272 96.179 74.488C94.947 75.704 93.451 76.312 91.691 76.312C90.139 76.312 88.795 75.84 87.659 74.896C86.539 73.936 85.843 72.712 85.571 71.224H83.579V76H80.987V64H83.579V68.776H85.571C85.843 67.288 86.539 66.072 87.659 65.128C88.795 64.168 90.139 63.688 91.691 63.688ZM89.027 72.712C89.747 73.432 90.635 73.792 91.691 73.792C92.747 73.792 93.635 73.432 94.355 72.712C95.075 71.992 95.435 71.088 95.435 70C95.435 68.912 95.075 68.008 94.355 67.288C93.635 66.568 92.747 66.208 91.691 66.208C90.635 66.208 89.747 66.568 89.027 67.288C88.307 68.008 87.947 68.912 87.947 70C87.947 71.088 88.307 71.992 89.027 72.712ZM105.458 76.312C103.618 76.312 102.114 75.72 100.946 74.536C99.7938 73.336 99.2178 71.808 99.2178 69.952C99.2178 67.92 99.5218 66.352 100.13 65.248C100.738 64.128 101.97 63.112 103.826 62.2C104.13 62.056 104.578 61.848 105.17 61.576C105.778 61.304 106.194 61.112 106.418 61C106.642 60.872 106.922 60.696 107.258 60.472C107.594 60.232 107.842 59.984 108.002 59.728C108.162 59.456 108.29 59.136 108.386 58.768L110.498 59.992C110.434 60.344 110.33 60.672 110.186 60.976C110.042 61.264 109.834 61.536 109.562 61.792C109.29 62.048 109.05 62.256 108.842 62.416C108.65 62.576 108.322 62.768 107.858 62.992C107.394 63.216 107.05 63.376 106.826 63.472C106.618 63.568 106.218 63.736 105.626 63.976C104.57 64.392 103.794 64.824 103.298 65.272C102.818 65.704 102.482 66.248 102.29 66.904C103.25 65.816 104.554 65.272 106.202 65.272C107.61 65.272 108.834 65.776 109.874 66.784C110.93 67.792 111.458 69.096 111.458 70.696C111.458 72.328 110.898 73.672 109.778 74.728C108.674 75.784 107.234 76.312 105.458 76.312ZM105.434 73.888C106.442 73.888 107.266 73.592 107.906 73C108.546 72.392 108.866 71.624 108.866 70.696C108.866 69.752 108.546 68.976 107.906 68.368C107.282 67.76 106.466 67.456 105.458 67.456C104.562 67.456 103.754 67.744 103.034 68.32C102.314 68.88 101.954 69.632 101.954 70.576C101.954 71.536 102.29 72.328 102.962 72.952C103.634 73.576 104.458 73.888 105.434 73.888ZM118.259 68.08C119.539 68.08 120.587 68.448 121.403 69.184C122.219 69.904 122.627 70.856 122.627 72.04C122.627 73.208 122.219 74.16 121.403 74.896C120.587 75.632 119.539 76 118.259 76H113.027V64H115.619V68.08H118.259ZM124.067 64H126.659V76H124.067V64ZM118.283 73.672C118.795 73.672 119.219 73.52 119.555 73.216C119.907 72.912 120.083 72.52 120.083 72.04C120.083 71.544 119.907 71.152 119.555 70.864C119.219 70.56 118.795 70.408 118.283 70.408H115.619V73.672H118.283ZM139.916 76H136.916L133.94 71.896L130.94 76H127.916L132.428 69.832L128.156 64H131.156L133.916 67.792L136.676 64H139.7L135.428 69.856L139.916 76ZM155.864 64V66.496H151.952V76H149.36V66.496H145.424V64H155.864ZM162.334 76.312C160.574 76.312 159.078 75.704 157.846 74.488C156.614 73.272 155.998 71.776 155.998 70C155.998 68.224 156.614 66.728 157.846 65.512C159.078 64.296 160.574 63.688 162.334 63.688C164.11 63.688 165.606 64.296 166.822 65.512C168.054 66.728 168.67 68.224 168.67 70C168.67 71.776 168.054 73.272 166.822 74.488C165.606 75.704 164.11 76.312 162.334 76.312ZM159.67 72.712C160.39 73.432 161.278 73.792 162.334 73.792C163.39 73.792 164.278 73.432 164.998 72.712C165.718 71.992 166.078 71.088 166.078 70C166.078 68.912 165.718 68.008 164.998 67.288C164.278 66.568 163.39 66.208 162.334 66.208C161.278 66.208 160.39 66.568 159.67 67.288C158.95 68.008 158.59 68.912 158.59 70C158.59 71.088 158.95 71.992 159.67 72.712ZM177.325 63.688C178.973 63.688 180.381 64.304 181.549 65.536C182.717 66.752 183.301 68.24 183.301 70C183.301 71.776 182.717 73.272 181.549 74.488C180.381 75.704 178.973 76.312 177.325 76.312C175.501 76.312 174.101 75.64 173.125 74.296V80.8H170.533V64H173.125V65.728C174.101 64.368 175.501 63.688 177.325 63.688ZM174.205 72.76C174.925 73.48 175.829 73.84 176.917 73.84C178.005 73.84 178.909 73.48 179.629 72.76C180.349 72.024 180.709 71.104 180.709 70C180.709 68.896 180.349 67.984 179.629 67.264C178.909 66.528 178.005 66.16 176.917 66.16C175.829 66.16 174.925 66.528 174.205 67.264C173.485 67.984 173.125 68.896 173.125 70C173.125 71.104 173.485 72.024 174.205 72.76ZM193.21 64V66.496H187.762V76H185.17V64H193.21ZM199.683 76.312C197.923 76.312 196.427 75.704 195.195 74.488C193.963 73.272 193.347 71.776 193.347 70C193.347 68.224 193.963 66.728 195.195 65.512C196.427 64.296 197.923 63.688 199.683 63.688C201.459 63.688 202.955 64.296 204.171 65.512C205.403 66.728 206.019 68.224 206.019 70C206.019 71.776 205.403 73.272 204.171 74.488C202.955 75.704 201.459 76.312 199.683 76.312ZM197.019 72.712C197.739 73.432 198.627 73.792 199.683 73.792C200.739 73.792 201.627 73.432 202.347 72.712C203.067 71.992 203.427 71.088 203.427 70C203.427 68.912 203.067 68.008 202.347 67.288C201.627 66.568 200.739 66.208 199.683 66.208C198.627 66.208 197.739 66.568 197.019 67.288C196.299 68.008 195.939 68.912 195.939 70C195.939 71.088 196.299 71.992 197.019 72.712ZM216.186 69.832C217.37 70.376 217.962 71.296 217.962 72.592C217.962 73.6 217.618 74.424 216.93 75.064C216.258 75.688 215.29 76 214.026 76H207.882V64H213.546C214.778 64 215.73 64.312 216.402 64.936C217.09 65.544 217.434 66.336 217.434 67.312C217.434 68.448 217.018 69.288 216.186 69.832ZM213.354 66.208H210.354V68.872H213.354C214.41 68.872 214.938 68.424 214.938 67.528C214.938 66.648 214.41 66.208 213.354 66.208ZM213.786 73.744C214.874 73.744 215.418 73.272 215.418 72.328C215.418 71.912 215.274 71.592 214.986 71.368C214.698 71.128 214.298 71.008 213.786 71.008H210.354V73.744H213.786ZM224.822 68.08C226.102 68.08 227.15 68.448 227.966 69.184C228.782 69.904 229.19 70.856 229.19 72.04C229.19 73.208 228.782 74.16 227.966 74.896C227.15 75.632 226.102 76 224.822 76H219.59V64H222.182V68.08H224.822ZM230.63 64H233.222V76H230.63V64ZM224.846 73.672C225.358 73.672 225.782 73.52 226.118 73.216C226.47 72.912 226.646 72.52 226.646 72.04C226.646 71.544 226.47 71.152 226.118 70.864C225.782 70.56 225.358 70.408 224.846 70.408H222.182V73.672H224.846ZM246.478 76H243.478L240.502 71.896L237.502 76H234.478L238.99 69.832L234.718 64H237.718L240.478 67.792L243.238 64H246.262L241.99 69.856L246.478 76ZM262.427 64V66.496H258.515V76H255.923V66.496H251.987V64H262.427ZM268.896 76.312C267.136 76.312 265.64 75.704 264.408 74.488C263.176 73.272 262.56 71.776 262.56 70C262.56 68.224 263.176 66.728 264.408 65.512C265.64 64.296 267.136 63.688 268.896 63.688C270.672 63.688 272.168 64.296 273.384 65.512C274.616 66.728 275.232 68.224 275.232 70C275.232 71.776 274.616 73.272 273.384 74.488C272.168 75.704 270.672 76.312 268.896 76.312ZM266.232 72.712C266.952 73.432 267.84 73.792 268.896 73.792C269.952 73.792 270.84 73.432 271.56 72.712C272.28 71.992 272.64 71.088 272.64 70C272.64 68.912 272.28 68.008 271.56 67.288C270.84 66.568 269.952 66.208 268.896 66.208C267.84 66.208 266.952 66.568 266.232 67.288C265.512 68.008 265.152 68.912 265.152 70C265.152 71.088 265.512 71.992 266.232 72.712ZM284.158 64H286.75V76H284.158V71.944C283.198 72.296 282.19 72.472 281.134 72.472C279.646 72.472 278.47 72.104 277.606 71.368C276.742 70.632 276.31 69.552 276.31 68.128V64H278.902V67.888C278.902 69.328 279.758 70.048 281.47 70.048C282.478 70.048 283.374 69.864 284.158 69.496V64ZM291.336 71.104C291.528 72.016 291.968 72.72 292.656 73.216C293.344 73.696 294.184 73.936 295.176 73.936C296.552 73.936 297.584 73.44 298.272 72.448L300.408 73.696C299.224 75.44 297.472 76.312 295.152 76.312C293.2 76.312 291.624 75.72 290.424 74.536C289.224 73.336 288.624 71.824 288.624 70C288.624 68.208 289.216 66.712 290.4 65.512C291.584 64.296 293.104 63.688 294.96 63.688C296.72 63.688 298.16 64.304 299.28 65.536C300.416 66.768 300.984 68.264 300.984 70.024C300.984 70.296 300.952 70.656 300.888 71.104H291.336ZM291.312 68.992H298.368C298.192 68.016 297.784 67.28 297.144 66.784C296.52 66.288 295.784 66.04 294.936 66.04C293.976 66.04 293.176 66.304 292.536 66.832C291.896 67.36 291.488 68.08 291.312 68.992ZM313.392 76H310.296L305.376 70.456V76H302.784V64H305.376V69.304L310.032 64H313.2L307.92 69.88L313.392 76Z" fill="#1A3555"/>
<path d="M27.242 110.168C26.1873 110.168 25.31 109.818 24.61 109.118C23.91 108.409 23.56 107.536 23.56 106.5C23.56 105.464 23.91 104.596 24.61 103.896C25.31 103.187 26.1873 102.832 27.242 102.832C27.9327 102.832 28.5533 103 29.104 103.336C29.6547 103.663 30.056 104.106 30.308 104.666L29.552 105.1C29.3653 104.68 29.062 104.349 28.642 104.106C28.2313 103.854 27.7647 103.728 27.242 103.728C26.4673 103.728 25.814 103.999 25.282 104.54C24.75 105.072 24.484 105.725 24.484 106.5C24.484 107.275 24.75 107.933 25.282 108.474C25.814 109.006 26.4673 109.272 27.242 109.272C27.7647 109.272 28.2313 109.151 28.642 108.908C29.0527 108.656 29.3747 108.32 29.608 107.9L30.378 108.348C30.0887 108.908 29.664 109.351 29.104 109.678C28.544 110.005 27.9233 110.168 27.242 110.168ZM36.6079 103V103.896H34.1299V110H33.2059V103.896H30.7279V103H36.6079ZM43.4805 103H44.4045V110H43.4805V108.628C42.8365 109.655 41.8938 110.168 40.6525 110.168C39.6538 110.168 38.7998 109.813 38.0905 109.104C37.3905 108.395 37.0405 107.527 37.0405 106.5C37.0405 105.473 37.3905 104.605 38.0905 103.896C38.7998 103.187 39.6538 102.832 40.6525 102.832C41.8938 102.832 42.8365 103.345 43.4805 104.372V103ZM38.7625 108.474C39.2945 109.006 39.9478 109.272 40.7225 109.272C41.4971 109.272 42.1505 109.006 42.6825 108.474C43.2145 107.933 43.4805 107.275 43.4805 106.5C43.4805 105.725 43.2145 105.072 42.6825 104.54C42.1505 103.999 41.4971 103.728 40.7225 103.728C39.9478 103.728 39.2945 103.999 38.7625 104.54C38.2305 105.072 37.9645 105.725 37.9645 106.5C37.9645 107.275 38.2305 107.933 38.7625 108.474ZM51.3169 103H52.2409V110H51.3169V106.948H47.2849V110H46.3609V103H47.2849V106.052H51.3169V103ZM60.0748 109.104H61.0548V111.876H60.1308V110H54.4188V111.876H53.4948V109.104H54.3488C54.8248 108.479 55.0628 107.597 55.0628 106.458V103H60.0748V109.104ZM55.4688 109.104H59.1508V103.896H55.9868V106.458C55.9868 107.531 55.8142 108.413 55.4688 109.104ZM68.1992 103H69.1232V110H68.1992V108.628C67.5552 109.655 66.6126 110.168 65.3712 110.168C64.3726 110.168 63.5186 109.813 62.8092 109.104C62.1092 108.395 61.7592 107.527 61.7592 106.5C61.7592 105.473 62.1092 104.605 62.8092 103.896C63.5186 103.187 64.3726 102.832 65.3712 102.832C66.6126 102.832 67.5552 103.345 68.1992 104.372V103ZM63.4812 108.474C64.0132 109.006 64.6666 109.272 65.4412 109.272C66.2159 109.272 66.8692 109.006 67.4012 108.474C67.9332 107.933 68.1992 107.275 68.1992 106.5C68.1992 105.725 67.9332 105.072 67.4012 104.54C66.8692 103.999 66.2159 103.728 65.4412 103.728C64.6666 103.728 64.0132 103.999 63.4812 104.54C62.9492 105.072 62.6832 105.725 62.6832 106.5C62.6832 107.275 62.9492 107.933 63.4812 108.474ZM74.8316 102.832C75.8303 102.832 76.6796 103.187 77.3796 103.896C78.0889 104.605 78.4436 105.473 78.4436 106.5C78.4436 107.527 78.0889 108.395 77.3796 109.104C76.6796 109.813 75.8303 110.168 74.8316 110.168C73.5903 110.168 72.6476 109.655 72.0036 108.628V112.8H71.0796V103H72.0036V104.372C72.6476 103.345 73.5903 102.832 74.8316 102.832ZM72.8016 108.474C73.3336 109.006 73.9869 109.272 74.7616 109.272C75.5363 109.272 76.1896 109.006 76.7216 108.474C77.2536 107.933 77.5196 107.275 77.5196 106.5C77.5196 105.725 77.2536 105.072 76.7216 104.54C76.1896 103.999 75.5363 103.728 74.7616 103.728C73.9869 103.728 73.3336 103.999 72.8016 104.54C72.2696 105.072 72.0036 105.725 72.0036 106.5C72.0036 107.275 72.2696 107.933 72.8016 108.474ZM84.7466 103V103.896H82.2686V110H81.3446V103.896H78.8666V103H84.7466ZM90.8286 103H91.7526V110H90.8286V106.948H86.7966V110H85.8726V103H86.7966V106.052H90.8286V103ZM96.5486 105.66C97.2019 105.66 97.7526 105.865 98.2006 106.276C98.6579 106.677 98.8866 107.195 98.8866 107.83C98.8866 108.465 98.6579 108.987 98.2006 109.398C97.7526 109.799 97.2019 110 96.5486 110H93.7066V103H94.6306V105.66H96.5486ZM99.8666 103H100.791V110H99.8666V103ZM96.5486 109.104C96.9406 109.104 97.2719 108.987 97.5426 108.754C97.8226 108.521 97.9626 108.213 97.9626 107.83C97.9626 107.447 97.8226 107.139 97.5426 106.906C97.2719 106.673 96.9406 106.556 96.5486 106.556H94.6306V109.104H96.5486ZM103.877 101.88V101.068H107.517V101.88H103.877ZM107.853 103H108.637V110H107.713V104.61L103.541 110H102.757V103H103.681V108.39L107.853 103ZM119.131 103V103.896H116.653V110H115.729V103.896H113.251V103H119.131ZM126.004 103H126.928V110H126.004V108.628C125.36 109.655 124.417 110.168 123.176 110.168C122.177 110.168 121.323 109.813 120.614 109.104C119.914 108.395 119.564 107.527 119.564 106.5C119.564 105.473 119.914 104.605 120.614 103.896C121.323 103.187 122.177 102.832 123.176 102.832C124.417 102.832 125.36 103.345 126.004 104.372V103ZM121.286 108.474C121.818 109.006 122.471 109.272 123.246 109.272C124.021 109.272 124.674 109.006 125.206 108.474C125.738 107.933 126.004 107.275 126.004 106.5C126.004 105.725 125.738 105.072 125.206 104.54C124.674 103.999 124.021 103.728 123.246 103.728C122.471 103.728 121.818 103.999 121.286 104.54C120.754 105.072 120.488 105.725 120.488 106.5C120.488 107.275 120.754 107.933 121.286 108.474ZM132.636 102.832C133.635 102.832 134.484 103.187 135.184 103.896C135.894 104.605 136.248 105.473 136.248 106.5C136.248 107.527 135.894 108.395 135.184 109.104C134.484 109.813 133.635 110.168 132.636 110.168C131.395 110.168 130.452 109.655 129.808 108.628V112.8H128.884V103H129.808V104.372C130.452 103.345 131.395 102.832 132.636 102.832ZM130.606 108.474C131.138 109.006 131.792 109.272 132.566 109.272C133.341 109.272 133.994 109.006 134.526 108.474C135.058 107.933 135.324 107.275 135.324 106.5C135.324 105.725 135.058 105.072 134.526 104.54C133.994 103.999 133.341 103.728 132.566 103.728C131.792 103.728 131.138 103.999 130.606 104.54C130.074 105.072 129.808 105.725 129.808 106.5C129.808 107.275 130.074 107.933 130.606 108.474ZM142.881 103H143.665V110H142.741V104.61L138.569 110H137.785V103H138.709V108.39L142.881 103ZM152.451 104.008C153.123 104.689 153.459 105.52 153.459 106.5C153.459 107.48 153.123 108.311 152.451 108.992C151.779 109.673 150.892 110.061 149.791 110.154V112.8H148.867V110.154C147.765 110.061 146.879 109.673 146.207 108.992C145.535 108.311 145.199 107.48 145.199 106.5C145.199 105.52 145.535 104.689 146.207 104.008C146.879 103.327 147.765 102.939 148.867 102.846V100.2H149.791V102.846C150.892 102.939 151.779 103.327 152.451 104.008ZM146.865 104.652C146.37 105.156 146.123 105.772 146.123 106.5C146.123 107.228 146.37 107.849 146.865 108.362C147.359 108.866 148.027 109.16 148.867 109.244V103.756C148.027 103.84 147.359 104.139 146.865 104.652ZM149.791 109.244C150.631 109.16 151.298 108.866 151.793 108.362C152.287 107.849 152.535 107.228 152.535 106.5C152.535 105.772 152.287 105.156 151.793 104.652C151.298 104.139 150.631 103.84 149.791 103.756V109.244Z" fill="#1A3555"/>
</g>
<defs>
<filter id="filter0_d_11_169" x="0" y="0" width="388" height="228" filterUnits="userSpaceOnUse" color-interpolation-filters="sRGB">
<feFlood flood-opacity="0" result="BackgroundImageFix"/>
<feColorMatrix in="SourceAlpha" type="matrix" values="0 0 0 0 0 0 0 0 0 0 0 0 0 0 0 0 0 0 127 0" result="hardAlpha"/>
<feOffset dy="4"/>
<feGaussianBlur stdDeviation="2"/>
<feColorMatrix type="matrix" values="0 0 0 0 0 0 0 0 0 0 0 0 0 0 0 0 0 0 0.1 0"/>
<feBlend mode="normal" in2="BackgroundImageFix" result="effect1_dropShadow_11_169"/>
<feBlend mode="normal" in="SourceGraphic" in2="effect1_dropShadow_11_169" result="shape"/>
</filter>
</defs>
</svg>
