<svg width="45" height="18" viewBox="0 0 45 18" fill="none" xmlns="http://www.w3.org/2000/svg">
<path opacity="0.5" d="M5.608 4.58136C6.256 4.58136 6.868 4.70736 7.444 4.95936C8.02 5.19936 8.518 5.53536 8.938 5.96736C9.37 6.38736 9.706 6.88536 9.946 7.46136C10.198 8.02536 10.324 8.63136 10.324 9.27936V13.7794H8.758V12.7714C8.338 13.1434 7.858 13.4374 7.318 13.6534C6.79 13.8574 6.22 13.9594 5.608 13.9594C4.96 13.9594 4.354 13.8394 3.79 13.5994C3.226 13.3474 2.728 13.0114 2.296 12.5914C1.876 12.1714 1.54 11.6794 1.288 11.1154C1.048 10.5394 0.928 9.92736 0.928 9.27936C0.928 8.63136 1.048 8.02536 1.288 7.46136C1.54 6.88536 1.876 6.38736 2.296 5.96736C2.728 5.53536 3.226 5.19936 3.79 4.95936C4.354 4.70736 4.96 4.58136 5.608 4.58136ZM5.608 6.12936C5.176 6.12936 4.768 6.21336 4.384 6.38136C4 6.53736 3.664 6.75936 3.376 7.04736C3.1 7.33536 2.878 7.67136 2.71 8.05536C2.542 8.43936 2.458 8.84736 2.458 9.27936C2.458 9.71136 2.542 10.1194 2.71 10.5034C2.878 10.8874 3.1 11.2234 3.376 11.5114C3.664 11.7874 4 12.0094 4.384 12.1774C4.768 12.3454 5.176 12.4294 5.608 12.4294C6.052 12.4294 6.466 12.3454 6.85 12.1774C7.234 12.0094 7.564 11.7874 7.84 11.5114C8.128 11.2234 8.35 10.8874 8.506 10.5034C8.674 10.1194 8.758 9.71136 8.758 9.27936C8.758 8.84736 8.674 8.43936 8.506 8.05536C8.35 7.67136 8.128 7.33536 7.84 7.04736C7.564 6.75936 7.234 6.53736 6.85 6.38136C6.466 6.21336 6.052 6.12936 5.608 6.12936ZM12.0386 0.621362H13.5686V11.4574C13.5686 11.7334 13.6946 11.9674 13.9466 12.1594C14.2106 12.3514 14.5226 12.4474 14.8826 12.4474V13.9774C14.4866 13.9774 14.1146 13.9114 13.7666 13.7794C13.4306 13.6474 13.1306 13.4674 12.8666 13.2394C12.6146 13.0114 12.4106 12.7474 12.2546 12.4474C12.1106 12.1354 12.0386 11.8054 12.0386 11.4574V0.621362ZM18.5321 9.96336C18.1961 9.96336 17.8781 9.90336 17.5781 9.78336C17.2901 9.66336 17.0321 9.50136 16.8041 9.29736C16.5761 9.08136 16.3901 8.82936 16.2461 8.54136C16.1141 8.25336 16.0421 7.94136 16.0301 7.60536C16.0181 7.53336 16.0121 7.44336 16.0121 7.33536C16.0121 7.21536 16.0181 7.11936 16.0301 7.04736C16.0421 6.72336 16.1141 6.41736 16.2461 6.12936C16.3901 5.84136 16.5761 5.58936 16.8041 5.37336C17.0321 5.15736 17.2901 4.98936 17.5781 4.86936C17.8781 4.74936 18.1961 4.68936 18.5321 4.68936H21.9881V6.23736H18.5321C18.2801 6.23736 18.0581 6.32736 17.8661 6.50736C17.6861 6.67536 17.5841 6.89136 17.5601 7.15536C17.5361 7.27536 17.5361 7.40136 17.5601 7.53336C17.5841 7.78536 17.6861 8.00136 17.8661 8.18136C18.0581 8.34936 18.2801 8.43336 18.5321 8.43336H19.7741C20.1101 8.43336 20.4281 8.49936 20.7281 8.63136C21.0281 8.75136 21.2861 8.91936 21.5021 9.13536C21.7301 9.35136 21.9101 9.60336 22.0421 9.89136C22.1861 10.1794 22.2641 10.4914 22.2761 10.8274V11.3314C22.2761 11.6794 22.2041 12.0034 22.0601 12.3034C21.9281 12.5914 21.7481 12.8494 21.5201 13.0774C21.3041 13.3054 21.0401 13.4854 20.7281 13.6174C20.4281 13.7374 20.1041 13.7974 19.7561 13.7974H16.2101V12.2674H19.7561C19.9961 12.2674 20.2001 12.1894 20.3681 12.0334C20.5481 11.8774 20.6681 11.6914 20.7281 11.4754V11.4034C20.7281 11.3794 20.7281 11.3614 20.7281 11.3494C20.7401 11.3254 20.7461 11.3014 20.7461 11.2774V10.9354C20.7341 10.6594 20.6321 10.4314 20.4401 10.2514C20.2601 10.0594 20.0321 9.96336 19.7561 9.96336H18.5321ZM31.2756 8.55936C31.1796 8.22336 31.0356 7.91136 30.8436 7.62336C30.6636 7.32336 30.4416 7.07136 30.1776 6.86736C29.9136 6.65136 29.6136 6.48336 29.2776 6.36336C28.9536 6.24336 28.6056 6.18336 28.2336 6.18336C27.8616 6.18336 27.5076 6.24336 27.1716 6.36336C26.8476 6.48336 26.5536 6.65136 26.2896 6.86736C26.0256 7.07136 25.7976 7.32336 25.6056 7.62336C25.4136 7.91136 25.2756 8.22336 25.1916 8.55936H31.2756ZM28.2336 14.0134C27.5856 14.0134 26.9736 13.8934 26.3976 13.6534C25.8336 13.4014 25.3356 13.0654 24.9036 12.6454C24.4836 12.2134 24.1476 11.7154 23.8956 11.1514C23.6556 10.5874 23.5356 9.98136 23.5356 9.33336C23.5356 8.68536 23.6556 8.07336 23.8956 7.49736C24.1476 6.92136 24.4836 6.42336 24.9036 6.00336C25.3356 5.58336 25.8336 5.25336 26.3976 5.01336C26.9736 4.76136 27.5856 4.63536 28.2336 4.63536C28.8816 4.63536 29.4876 4.76136 30.0516 5.01336C30.6276 5.25336 31.1256 5.58336 31.5456 6.00336C31.9656 6.42336 32.2956 6.92136 32.5356 7.49736C32.7876 8.07336 32.9136 8.68536 32.9136 9.33336C32.9136 9.41736 32.9136 9.50736 32.9136 9.60336C32.9136 9.69936 32.9016 9.86136 32.8776 10.0894H25.1916C25.2756 10.4374 25.4136 10.7554 25.6056 11.0434C25.7976 11.3314 26.0256 11.5834 26.2896 11.7994C26.5536 12.0154 26.8476 12.1834 27.1716 12.3034C27.5076 12.4234 27.8616 12.4834 28.2336 12.4834C28.5216 12.4834 28.8096 12.4114 29.0976 12.2674C29.3856 12.1114 29.6616 11.9074 29.9256 11.6554L31.0056 12.7354C30.6096 13.1194 30.1716 13.4314 29.6916 13.6714C29.2236 13.8994 28.7376 14.0134 28.2336 14.0134ZM39.3605 4.63536C40.0085 4.63536 40.6145 4.76136 41.1785 5.01336C41.7545 5.25336 42.2525 5.58336 42.6725 6.00336C43.1045 6.42336 43.4405 6.92136 43.6805 7.49736C43.9325 8.07336 44.0585 8.68536 44.0585 9.33336C44.0585 9.98136 43.9325 10.5874 43.6805 11.1514C43.4405 11.7154 43.1045 12.2134 42.6725 12.6454C42.2525 13.0654 41.7545 13.4014 41.1785 13.6534C40.6145 13.8934 40.0085 14.0134 39.3605 14.0134C38.7485 14.0134 38.1725 13.9114 37.6325 13.7074C37.1045 13.4914 36.6305 13.1914 36.2105 12.8074V17.9914H34.6625V9.33336C34.6625 8.68536 34.7825 8.07336 35.0225 7.49736C35.2745 6.92136 35.6105 6.42336 36.0305 6.00336C36.4625 5.58336 36.9605 5.25336 37.5245 5.01336C38.1005 4.76136 38.7125 4.63536 39.3605 4.63536ZM39.3605 6.18336C38.9285 6.18336 38.5205 6.26736 38.1365 6.43536C37.7525 6.59136 37.4165 6.81336 37.1285 7.10136C36.8405 7.38936 36.6125 7.72536 36.4445 8.10936C36.2885 8.49336 36.2105 8.90136 36.2105 9.33336C36.2105 9.76536 36.2885 10.1734 36.4445 10.5574C36.6125 10.9414 36.8405 11.2774 37.1285 11.5654C37.4165 11.8414 37.7525 12.0634 38.1365 12.2314C38.5205 12.3994 38.9285 12.4834 39.3605 12.4834C39.7925 12.4834 40.2005 12.3994 40.5845 12.2314C40.9685 12.0634 41.3045 11.8414 41.5925 11.5654C41.8805 11.2774 42.1025 10.9414 42.2585 10.5574C42.4265 10.1734 42.5105 9.76536 42.5105 9.33336C42.5105 8.90136 42.4265 8.49336 42.2585 8.10936C42.1025 7.72536 41.8805 7.38936 41.5925 7.10136C41.3045 6.81336 40.9685 6.59136 40.5845 6.43536C40.2005 6.26736 39.7925 6.18336 39.3605 6.18336Z" fill="white"/>
</svg>
