<svg width="388" height="228" viewBox="0 0 388 228" fill="none" xmlns="http://www.w3.org/2000/svg">
<g filter="url(#filter0_d_11_158)">
<rect x="4" width="380" height="220" rx="20" fill="white"/>
<path d="M276.565 158.4H281.365V192H275.845V164.304L269.077 166.224L267.733 161.52L276.565 158.4ZM295.193 186.24L291.833 198.72H287.513L289.433 186.24H295.193ZM313.704 172.128C316.136 172.704 318.104 173.84 319.608 175.536C321.144 177.2 321.912 179.296 321.912 181.824C321.912 185.184 320.776 187.824 318.504 189.744C316.232 191.664 313.448 192.624 310.152 192.624C307.592 192.624 305.288 192.032 303.24 190.848C301.224 189.664 299.768 187.936 298.872 185.664L303.576 182.928C304.568 185.808 306.76 187.248 310.152 187.248C312.072 187.248 313.592 186.768 314.712 185.808C315.832 184.816 316.392 183.488 316.392 181.824C316.392 180.16 315.832 178.848 314.712 177.888C313.592 176.928 312.072 176.448 310.152 176.448H308.904L306.696 173.136L313.944 163.584H299.88V158.4H320.52V163.104L313.704 172.128ZM337.981 170.928C336.509 172.4 334.653 173.136 332.413 173.136C330.173 173.136 328.301 172.4 326.797 170.928C325.293 169.424 324.541 167.6 324.541 165.456C324.541 163.312 325.293 161.504 326.797 160.032C328.301 158.528 330.173 157.776 332.413 157.776C334.653 157.776 336.509 158.512 337.981 159.984C339.485 161.456 340.237 163.28 340.237 165.456C340.237 167.6 339.485 169.424 337.981 170.928ZM332.365 168.912C333.389 168.912 334.221 168.576 334.861 167.904C335.501 167.232 335.821 166.416 335.821 165.456C335.821 164.464 335.501 163.632 334.861 162.96C334.221 162.288 333.389 161.952 332.365 161.952C331.373 161.952 330.557 162.288 329.917 162.96C329.277 163.632 328.957 164.464 328.957 165.456C328.957 166.416 329.277 167.232 329.917 167.904C330.557 168.576 331.373 168.912 332.365 168.912ZM327.373 187.056L349.501 162.432L352.093 163.92L329.965 188.592L327.373 187.056ZM347.773 192.576C345.533 192.576 343.661 191.84 342.157 190.368C340.653 188.864 339.901 187.04 339.901 184.896C339.901 182.752 340.653 180.944 342.157 179.472C343.661 177.968 345.533 177.216 347.773 177.216C349.981 177.216 351.837 177.968 353.341 179.472C354.845 180.944 355.597 182.752 355.597 184.896C355.597 187.04 354.845 188.864 353.341 190.368C351.837 191.84 349.981 192.576 347.773 192.576ZM347.725 188.352C348.749 188.352 349.581 188.016 350.221 187.344C350.861 186.672 351.181 185.856 351.181 184.896C351.181 183.904 350.861 183.072 350.221 182.4C349.581 181.728 348.749 181.392 347.725 181.392C346.733 181.392 345.917 181.728 345.277 182.4C344.637 183.072 344.317 183.904 344.317 184.896C344.317 185.856 344.637 186.672 345.277 187.344C345.917 188.016 346.733 188.352 347.725 188.352Z" fill="#E33030"/>
<path d="M37.28 44.36H39.08V50.216H36.32V47H26.12V50.216H23.36V44.36H24.92C25.896 43.08 26.384 41.152 26.384 38.576V30.2H37.28V44.36ZM27.944 44.36H34.52V32.792H29.144V38.624C29.144 41.12 28.744 43.032 27.944 44.36ZM50.9647 35V47H48.3727V37.496H44.3647V41.96C44.3647 43.864 43.9487 45.216 43.1167 46.016C42.2847 46.816 41.1007 47.144 39.5647 47V44.576C40.3007 44.704 40.8527 44.552 41.2207 44.12C41.5887 43.688 41.7727 42.928 41.7727 41.84V35H50.9647ZM62.7931 35V47H60.2491V42.968H58.8091L55.7611 47H52.7131L55.9531 42.728C55.1211 42.456 54.4491 41.976 53.9371 41.288C53.4411 40.6 53.1931 39.832 53.1931 38.984C53.1931 37.88 53.5851 36.944 54.3691 36.176C55.1691 35.392 56.1931 35 57.4411 35H62.7931ZM57.5851 40.736H60.2491V37.352H57.5851C57.0571 37.352 56.6171 37.504 56.2651 37.808C55.9131 38.112 55.7371 38.528 55.7371 39.056C55.7371 39.568 55.9131 39.976 56.2651 40.28C56.6171 40.584 57.0571 40.736 57.5851 40.736ZM81.4578 47H78.3618L73.4418 41.456V47H70.8498V35H73.4418V40.304L78.0978 35H81.2658L75.9858 40.88L81.4578 47ZM91.2644 35H93.8564V47H91.2644V45.272C90.2884 46.632 88.8884 47.312 87.0644 47.312C85.4164 47.312 84.0084 46.704 82.8404 45.488C81.6724 44.256 81.0884 42.76 81.0884 41C81.0884 39.224 81.6724 37.728 82.8404 36.512C84.0084 35.296 85.4164 34.688 87.0644 34.688C88.8884 34.688 90.2884 35.36 91.2644 36.704V35ZM84.7604 43.76C85.4804 44.48 86.3844 44.84 87.4724 44.84C88.5604 44.84 89.4644 44.48 90.1844 43.76C90.9044 43.024 91.2644 42.104 91.2644 41C91.2644 39.896 90.9044 38.984 90.1844 38.264C89.4644 37.528 88.5604 37.16 87.4724 37.16C86.3844 37.16 85.4804 37.528 84.7604 38.264C84.0404 38.984 83.6804 39.896 83.6804 41C83.6804 42.104 84.0404 43.024 84.7604 43.76ZM103.19 34.688C104.838 34.688 106.246 35.304 107.414 36.536C108.582 37.752 109.166 39.24 109.166 41C109.166 42.776 108.582 44.272 107.414 45.488C106.246 46.704 104.838 47.312 103.19 47.312C101.366 47.312 99.9656 46.64 98.9896 45.296V51.8H96.3976V35H98.9896V36.728C99.9656 35.368 101.366 34.688 103.19 34.688ZM100.07 43.76C100.79 44.48 101.694 44.84 102.782 44.84C103.87 44.84 104.774 44.48 105.494 43.76C106.214 43.024 106.574 42.104 106.574 41C106.574 39.896 106.214 38.984 105.494 38.264C104.774 37.528 103.87 37.16 102.782 37.16C101.694 37.16 100.79 37.528 100.07 38.264C99.3496 38.984 98.9896 39.896 98.9896 41C98.9896 42.104 99.3496 43.024 100.07 43.76ZM119.734 35V37.496H115.822V47H113.23V37.496H109.294V35H119.734ZM137.64 47L136.464 43.616H129.312L128.136 47H125.136L131.232 30.2H134.544L140.616 47H137.64ZM130.224 41.024H135.552L132.888 33.44L130.224 41.024ZM155.35 44.792C153.67 46.472 151.614 47.312 149.182 47.312C146.75 47.312 144.686 46.472 142.99 44.792C141.31 43.096 140.47 41.032 140.47 38.6C140.47 36.168 141.31 34.112 142.99 32.432C144.686 30.736 146.75 29.888 149.182 29.888C151.614 29.888 153.67 30.736 155.35 32.432C157.046 34.112 157.894 36.168 157.894 38.6C157.894 41.032 157.046 43.096 155.35 44.792ZM144.934 42.92C146.086 44.056 147.502 44.624 149.182 44.624C150.862 44.624 152.27 44.056 153.406 42.92C154.558 41.768 155.134 40.328 155.134 38.6C155.134 36.872 154.558 35.44 153.406 34.304C152.27 33.152 150.862 32.576 149.182 32.576C147.502 32.576 146.086 33.152 144.934 34.304C143.798 35.44 143.23 36.872 143.23 38.6C143.23 40.328 143.798 41.768 144.934 42.92ZM165.019 36.44L166.699 30.2H168.859L167.899 36.44H165.019ZM169.099 36.44L170.779 30.2H172.939L171.979 36.44H169.099ZM181.761 36.68C183.313 36.68 184.601 37.168 185.625 38.144C186.649 39.12 187.161 40.352 187.161 41.84C187.161 43.328 186.649 44.56 185.625 45.536C184.601 46.512 183.313 47 181.761 47H175.401V30.2H185.721V32.84H178.161V36.68H181.761ZM181.761 44.408C182.513 44.408 183.137 44.176 183.633 43.712C184.145 43.232 184.401 42.608 184.401 41.84C184.401 41.072 184.145 40.456 183.633 39.992C183.137 39.512 182.513 39.272 181.761 39.272H178.161V44.408H181.761ZM198.296 35H200.888V47H198.296V45.272C197.32 46.632 195.92 47.312 194.096 47.312C192.448 47.312 191.04 46.704 189.872 45.488C188.704 44.256 188.12 42.76 188.12 41C188.12 39.224 188.704 37.728 189.872 36.512C191.04 35.296 192.448 34.688 194.096 34.688C195.92 34.688 197.32 35.36 198.296 36.704V35ZM191.792 43.76C192.512 44.48 193.416 44.84 194.504 44.84C195.592 44.84 196.496 44.48 197.216 43.76C197.936 43.024 198.296 42.104 198.296 41C198.296 39.896 197.936 38.984 197.216 38.264C196.496 37.528 195.592 37.16 194.504 37.16C193.416 37.16 192.512 37.528 191.792 38.264C191.072 38.984 190.712 39.896 190.712 41C190.712 42.104 191.072 43.024 191.792 43.76ZM211.517 35H214.109V47H211.517V42.224H206.021V47H203.429V35H206.021V39.776H211.517V35ZM227.245 47H224.149L219.229 41.456V47H216.637V35H219.229V40.304L223.885 35H227.053L221.773 40.88L227.245 47ZM37.04 73.36H38.84V79.216H36.08V76H24.68V59.2H27.44V73.36H34.28V59.2H37.04V73.36ZM42.1736 71.104C42.3656 72.016 42.8056 72.72 43.4936 73.216C44.1816 73.696 45.0216 73.936 46.0136 73.936C47.3896 73.936 48.4216 73.44 49.1096 72.448L51.2456 73.696C50.0616 75.44 48.3096 76.312 45.9896 76.312C44.0376 76.312 42.4616 75.72 41.2616 74.536C40.0616 73.336 39.4616 71.824 39.4616 70C39.4616 68.208 40.0536 66.712 41.2376 65.512C42.4216 64.296 43.9416 63.688 45.7976 63.688C47.5576 63.688 48.9976 64.304 50.1176 65.536C51.2536 66.768 51.8216 68.264 51.8216 70.024C51.8216 70.296 51.7896 70.656 51.7256 71.104H42.1736ZM42.1496 68.992H49.2056C49.0296 68.016 48.6216 67.28 47.9816 66.784C47.3576 66.288 46.6216 66.04 45.7736 66.04C44.8136 66.04 44.0136 66.304 43.3736 66.832C42.7336 67.36 42.3256 68.08 42.1496 68.992ZM61.7103 64H64.3023V76H61.7103V71.224H56.2143V76H53.6223V64H56.2143V68.776H61.7103V64ZM75.9978 64V66.496H72.0858V76H69.4938V66.496H65.5578V64H75.9978ZM84.0637 63.688C85.7117 63.688 87.1197 64.304 88.2877 65.536C89.4557 66.752 90.0397 68.24 90.0397 70C90.0397 71.776 89.4557 73.272 88.2877 74.488C87.1197 75.704 85.7117 76.312 84.0637 76.312C82.2397 76.312 80.8397 75.64 79.8637 74.296V80.8H77.2717V64H79.8637V65.728C80.8397 64.368 82.2397 63.688 84.0637 63.688ZM80.9437 72.76C81.6637 73.48 82.5677 73.84 83.6557 73.84C84.7437 73.84 85.6477 73.48 86.3677 72.76C87.0877 72.024 87.4477 71.104 87.4477 70C87.4477 68.896 87.0877 67.984 86.3677 67.264C85.6477 66.528 84.7437 66.16 83.6557 66.16C82.5677 66.16 81.6637 66.528 80.9437 67.264C80.2237 67.984 79.8637 68.896 79.8637 70C79.8637 71.104 80.2237 72.024 80.9437 72.76ZM104.749 76H101.461L94.8369 68.008V76H92.0769V59.2H94.8369V66.736L101.221 59.2H104.509L97.7169 67.384L104.749 76ZM112.682 63.688C114.33 63.688 115.738 64.304 116.906 65.536C118.074 66.752 118.658 68.24 118.658 70C118.658 71.776 118.074 73.272 116.906 74.488C115.738 75.704 114.33 76.312 112.682 76.312C110.858 76.312 109.458 75.64 108.482 74.296V80.8H105.89V64H108.482V65.728C109.458 64.368 110.858 63.688 112.682 63.688ZM109.562 72.76C110.282 73.48 111.186 73.84 112.274 73.84C113.362 73.84 114.266 73.48 114.986 72.76C115.706 72.024 116.066 71.104 116.066 70C116.066 68.896 115.706 67.984 114.986 67.264C114.266 66.528 113.362 66.16 112.274 66.16C111.186 66.16 110.282 66.528 109.562 67.264C108.842 67.984 108.482 68.896 108.482 70C108.482 71.104 108.842 72.024 109.562 72.76ZM122.567 71.104C122.759 72.016 123.199 72.72 123.887 73.216C124.575 73.696 125.415 73.936 126.407 73.936C127.783 73.936 128.815 73.44 129.503 72.448L131.639 73.696C130.455 75.44 128.703 76.312 126.383 76.312C124.431 76.312 122.855 75.72 121.655 74.536C120.455 73.336 119.855 71.824 119.855 70C119.855 68.208 120.447 66.712 121.631 65.512C122.815 64.296 124.335 63.688 126.191 63.688C127.951 63.688 129.391 64.304 130.511 65.536C131.647 66.768 132.215 68.264 132.215 70.024C132.215 70.296 132.183 70.656 132.119 71.104H122.567ZM122.543 68.992H129.599C129.423 68.016 129.015 67.28 128.375 66.784C127.751 66.288 127.015 66.04 126.167 66.04C125.207 66.04 124.407 66.304 123.767 66.832C123.127 67.36 122.719 68.08 122.543 68.992ZM144.107 73.552H145.715V79.216H143.171V76H134.939V79.216H132.395V73.552H133.859C134.595 72.512 134.963 71.064 134.963 69.208V64H144.107V73.552ZM136.715 73.552H141.563V66.376H137.507V69.208C137.507 70.92 137.243 72.368 136.715 73.552ZM156.028 64H158.02V76H155.476V68.368L149.332 76H147.34V64H149.884V71.608L156.028 64ZM169.716 64V66.496H165.804V76H163.212V66.496H159.276V64H169.716ZM174.59 59.2L172.91 65.44H170.75L171.71 59.2H174.59ZM178.67 59.2L176.99 65.44H174.83L175.79 59.2H178.67Z" fill="#1A3555"/>
<path d="M29.86 103V110H28.936V103.896H24.904V110H23.98V103H29.86ZM37.834 103H38.758V110H37.834V108.628C37.19 109.655 36.2473 110.168 35.006 110.168C34.0073 110.168 33.1533 109.813 32.444 109.104C31.744 108.395 31.394 107.527 31.394 106.5C31.394 105.473 31.744 104.605 32.444 103.896C33.1533 103.187 34.0073 102.832 35.006 102.832C36.2473 102.832 37.19 103.345 37.834 104.372V103ZM33.116 108.474C33.648 109.006 34.3013 109.272 35.076 109.272C35.8507 109.272 36.504 109.006 37.036 108.474C37.568 107.933 37.834 107.275 37.834 106.5C37.834 105.725 37.568 105.072 37.036 104.54C36.504 103.999 35.8507 103.728 35.076 103.728C34.3013 103.728 33.648 103.999 33.116 104.54C32.584 105.072 32.318 105.725 32.318 106.5C32.318 107.275 32.584 107.933 33.116 108.474ZM44.4664 102.832C45.465 102.832 46.3144 103.187 47.0144 103.896C47.7237 104.605 48.0784 105.473 48.0784 106.5C48.0784 107.527 47.7237 108.395 47.0144 109.104C46.3144 109.813 45.465 110.168 44.4664 110.168C43.225 110.168 42.2824 109.655 41.6384 108.628V112.8H40.7144V103H41.6384V104.372C42.2824 103.345 43.225 102.832 44.4664 102.832ZM42.4364 108.474C42.9684 109.006 43.6217 109.272 44.3964 109.272C45.171 109.272 45.8244 109.006 46.3564 108.474C46.8884 107.933 47.1544 107.275 47.1544 106.5C47.1544 105.725 46.8884 105.072 46.3564 104.54C45.8244 103.999 45.171 103.728 44.3964 103.728C43.6217 103.728 42.9684 103.999 42.4364 104.54C41.9044 105.072 41.6384 105.725 41.6384 106.5C41.6384 107.275 41.9044 107.933 42.4364 108.474ZM54.3813 103V103.896H51.9033V110H50.9793V103.896H48.5013V103H54.3813ZM60.4633 103H61.3873V110H60.4633V106.948H56.4313V110H55.5073V103H56.4313V106.052H60.4633V103ZM66.5753 102.832C67.6113 102.832 68.4467 103.201 69.0813 103.938C69.7253 104.666 70.0473 105.529 70.0473 106.528C70.0473 106.631 70.038 106.775 70.0193 106.962H63.8733C63.9667 107.671 64.2653 108.236 64.7693 108.656C65.2827 109.067 65.9127 109.272 66.6593 109.272C67.1913 109.272 67.6487 109.165 68.0313 108.95C68.4233 108.726 68.7173 108.437 68.9133 108.082L69.7253 108.558C69.4173 109.053 68.9973 109.445 68.4653 109.734C67.9333 110.023 67.3267 110.168 66.6453 110.168C65.544 110.168 64.648 109.823 63.9573 109.132C63.2667 108.441 62.9213 107.564 62.9213 106.5C62.9213 105.455 63.262 104.582 63.9433 103.882C64.6247 103.182 65.502 102.832 66.5753 102.832ZM66.5753 103.728C65.8473 103.728 65.236 103.947 64.7413 104.386C64.256 104.815 63.9667 105.375 63.8733 106.066H69.0953C69.002 105.329 68.7173 104.755 68.2413 104.344C67.7653 103.933 67.21 103.728 66.5753 103.728ZM75.2691 102.832C76.2678 102.832 77.1171 103.187 77.8171 103.896C78.5264 104.605 78.8811 105.473 78.8811 106.5C78.8811 107.527 78.5264 108.395 77.8171 109.104C77.1171 109.813 76.2678 110.168 75.2691 110.168C74.0278 110.168 73.0851 109.655 72.4411 108.628V112.8H71.5171V103H72.4411V104.372C73.0851 103.345 74.0278 102.832 75.2691 102.832ZM73.2391 108.474C73.7711 109.006 74.4244 109.272 75.1991 109.272C75.9738 109.272 76.6271 109.006 77.1591 108.474C77.6911 107.933 77.9571 107.275 77.9571 106.5C77.9571 105.725 77.6911 105.072 77.1591 104.54C76.6271 103.999 75.9738 103.728 75.1991 103.728C74.4244 103.728 73.7711 103.999 73.2391 104.54C72.7071 105.072 72.4411 105.725 72.4411 106.5C72.4411 107.275 72.7071 107.933 73.2391 108.474ZM83.6795 110.168C82.6248 110.168 81.7475 109.818 81.0475 109.118C80.3475 108.409 79.9975 107.536 79.9975 106.5C79.9975 105.464 80.3475 104.596 81.0475 103.896C81.7475 103.187 82.6248 102.832 83.6795 102.832C84.3702 102.832 84.9908 103 85.5415 103.336C86.0922 103.663 86.4935 104.106 86.7455 104.666L85.9895 105.1C85.8028 104.68 85.4995 104.349 85.0795 104.106C84.6688 103.854 84.2022 103.728 83.6795 103.728C82.9048 103.728 82.2515 103.999 81.7195 104.54C81.1875 105.072 80.9215 105.725 80.9215 106.5C80.9215 107.275 81.1875 107.933 81.7195 108.474C82.2515 109.006 82.9048 109.272 83.6795 109.272C84.2022 109.272 84.6688 109.151 85.0795 108.908C85.4902 108.656 85.8122 108.32 86.0455 107.9L86.8155 108.348C86.5262 108.908 86.1015 109.351 85.5415 109.678C84.9815 110.005 84.3608 110.168 83.6795 110.168ZM93.7981 110H92.5661L89.0661 106.626V110H88.1421V103H89.0661V106.094L92.3981 103H93.6581L90.0461 106.36L93.7981 110ZM100.156 103H100.94V110H100.016V104.61L95.8441 110H95.0601V103H95.9841V108.39L100.156 103ZM104.014 101.88V101.068H107.654V101.88H104.014ZM107.99 103H108.774V110H107.85V104.61L103.678 110H102.894V103H103.818V108.39L107.99 103ZM119.268 103V103.896H116.79V110H115.866V103.896H113.388V103H119.268ZM126.141 103H127.065V110H126.141V108.628C125.497 109.655 124.554 110.168 123.313 110.168C122.314 110.168 121.46 109.813 120.751 109.104C120.051 108.395 119.701 107.527 119.701 106.5C119.701 105.473 120.051 104.605 120.751 103.896C121.46 103.187 122.314 102.832 123.313 102.832C124.554 102.832 125.497 103.345 126.141 104.372V103ZM121.423 108.474C121.955 109.006 122.608 109.272 123.383 109.272C124.157 109.272 124.811 109.006 125.343 108.474C125.875 107.933 126.141 107.275 126.141 106.5C126.141 105.725 125.875 105.072 125.343 104.54C124.811 103.999 124.157 103.728 123.383 103.728C122.608 103.728 121.955 103.999 121.423 104.54C120.891 105.072 120.625 105.725 120.625 106.5C120.625 107.275 120.891 107.933 121.423 108.474ZM132.773 102.832C133.772 102.832 134.621 103.187 135.321 103.896C136.03 104.605 136.385 105.473 136.385 106.5C136.385 107.527 136.03 108.395 135.321 109.104C134.621 109.813 133.772 110.168 132.773 110.168C131.532 110.168 130.589 109.655 129.945 108.628V112.8H129.021V103H129.945V104.372C130.589 103.345 131.532 102.832 132.773 102.832ZM130.743 108.474C131.275 109.006 131.928 109.272 132.703 109.272C133.478 109.272 134.131 109.006 134.663 108.474C135.195 107.933 135.461 107.275 135.461 106.5C135.461 105.725 135.195 105.072 134.663 104.54C134.131 103.999 133.478 103.728 132.703 103.728C131.928 103.728 131.275 103.999 130.743 104.54C130.211 105.072 129.945 105.725 129.945 106.5C129.945 107.275 130.211 107.933 130.743 108.474ZM143.017 103H143.801V110H142.877V104.61L138.705 110H137.921V103H138.845V108.39L143.017 103ZM152.587 104.008C153.259 104.689 153.595 105.52 153.595 106.5C153.595 107.48 153.259 108.311 152.587 108.992C151.915 109.673 151.029 110.061 149.927 110.154V112.8H149.003V110.154C147.902 110.061 147.015 109.673 146.343 108.992C145.671 108.311 145.335 107.48 145.335 106.5C145.335 105.52 145.671 104.689 146.343 104.008C147.015 103.327 147.902 102.939 149.003 102.846V100.2H149.927V102.846C151.029 102.939 151.915 103.327 152.587 104.008ZM147.001 104.652C146.507 105.156 146.259 105.772 146.259 106.5C146.259 107.228 146.507 107.849 147.001 108.362C147.496 108.866 148.163 109.16 149.003 109.244V103.756C148.163 103.84 147.496 104.139 147.001 104.652ZM149.927 109.244C150.767 109.16 151.435 108.866 151.929 108.362C152.424 107.849 152.671 107.228 152.671 106.5C152.671 105.772 152.424 105.156 151.929 104.652C151.435 104.139 150.767 103.84 149.927 103.756V109.244Z" fill="#1A3555"/>
</g>
<defs>
<filter id="filter0_d_11_158" x="0" y="0" width="388" height="228" filterUnits="userSpaceOnUse" color-interpolation-filters="sRGB">
<feFlood flood-opacity="0" result="BackgroundImageFix"/>
<feColorMatrix in="SourceAlpha" type="matrix" values="0 0 0 0 0 0 0 0 0 0 0 0 0 0 0 0 0 0 127 0" result="hardAlpha"/>
<feOffset dy="4"/>
<feGaussianBlur stdDeviation="2"/>
<feColorMatrix type="matrix" values="0 0 0 0 0 0 0 0 0 0 0 0 0 0 0 0 0 0 0.1 0"/>
<feBlend mode="normal" in2="BackgroundImageFix" result="effect1_dropShadow_11_158"/>
<feBlend mode="normal" in="SourceGraphic" in2="effect1_dropShadow_11_158" result="shape"/>
</filter>
</defs>
</svg>
